<svg width="1920" height="120" viewBox="0 0 1920 120" fill="none" xmlns="http://www.w3.org/2000/svg">
<path d="M37.3582 118.261L46.565 96.6956H102.868L111.898 118.261H150.141L98.7957 1.73913H51.1684L0 118.261H37.3582ZM66.0408 50.9565L73.6541 31.3043H75.9558L83.7461 50.9565L90.6512 67.3043H59.1357L66.0408 50.9565Z" fill="#F6F6F6"/>
<path d="M222.401 120C263.831 120 282.953 100.348 282.953 69.3913V1.73913H249.667V66.7826C249.667 83.3044 244.887 88.3478 222.401 88.3478C199.915 88.3478 195.135 83.3044 195.135 66.7826V1.73913H161.849V69.3913C161.849 100.348 180.97 120 222.401 120Z" fill="#F6F6F6"/>
<path d="M374.371 118.261V31.1304H416.155V1.73913H299.123V31.1304H341.085V118.261H374.371Z" fill="#F6F6F6"/>
<path d="M496.963 120C539.279 120 563.358 96.3478 563.358 60C563.358 23.6522 539.279 0 496.963 0C455.71 0 431.277 23.6522 431.277 60C431.277 96.3478 455.71 120 496.963 120ZM496.963 88.6956C472.884 88.6956 466.687 83.1304 466.687 60C466.687 36.8696 472.884 31.3043 496.963 31.3043C521.042 31.3043 527.948 36.8696 527.948 60C527.948 83.1304 521.042 88.6956 496.963 88.6956Z" fill="#F6F6F6"/>
<path d="M653.679 118.261V31.1304H695.463V1.73913H578.431V31.1304H620.393V118.261H653.679Z" fill="#F6F6F6"/>
<path d="M817.702 118.261V88.8696H745.641V74.2609H815.046V45.0435H745.641V31.1304H817.702V1.73913H712.355V118.261H817.702Z" fill="#F6F6F6"/>
<path d="M869.302 118.261V1.73913H836.016V118.261H869.302Z" fill="#F6F6F6"/>
<path d="M990.592 118.261V88.8696H922.072V1.73913H888.786V118.261H990.592Z" fill="#F6F6F6"/>
<path d="M1113.64 118.261V88.8696H1041.58V74.2609H1110.99V45.0435H1041.58V31.1304H1113.64V1.73913H1008.3V118.261H1113.64Z" fill="#F6F6F6"/>
<path d="M1198.82 118.261V1.73913H1165.54V118.261H1198.82Z" fill="#F6F6F6"/>
<path d="M1251.59 118.261V70.087L1250.35 50.6087H1252.65L1259.38 70.087L1277.09 111.304H1317.46L1335.16 70.087L1341.89 50.6087H1344.19L1342.95 70.087V118.261H1376.24V1.73913H1331.09L1310.37 50.087L1299.22 80.1739H1296.92L1285.23 50.087L1263.45 1.73913H1218.31V118.261H1251.59Z" fill="#F6F6F6"/>
<path d="M1429.02 118.261V88.8696H1461.43C1489.58 88.8696 1507.28 72.8696 1507.28 45.2174C1507.28 17.5652 1489.58 1.73913 1461.43 1.73913H1395.74V118.261H1429.02ZM1457.71 31.1304C1469.39 31.1304 1474.17 33.3913 1474.17 45.2174C1474.17 57.2174 1469.39 59.4783 1457.71 59.4783H1429.02V31.1304H1457.71Z" fill="#F6F6F6"/>
<path d="M1587.12 120C1629.44 120 1653.51 96.3478 1653.51 60C1653.51 23.6522 1629.44 0 1587.12 0C1545.87 0 1521.43 23.6522 1521.43 60C1521.43 96.3478 1545.87 120 1587.12 120ZM1587.12 88.6956C1563.04 88.6956 1556.84 83.1304 1556.84 60C1556.84 36.8696 1563.04 31.3043 1587.12 31.3043C1611.2 31.3043 1618.1 36.8696 1618.1 60C1618.1 83.1304 1611.2 88.6956 1587.12 88.6956Z" fill="#F6F6F6"/>
<path d="M1704.53 118.261V78.6087H1718.16C1731.09 78.6087 1734.63 81.0435 1738.88 89.7391L1753.04 118.261H1791.46L1776.77 89.0435C1772.34 80.1739 1768.45 74.4348 1756.23 71.3043V69.5652C1778.89 66.7826 1788.28 55.8261 1788.28 37.3913C1788.28 14.6087 1771.81 1.73913 1740.47 1.73913H1671.24V118.261H1704.53ZM1704.53 31.1304H1740.12C1749.85 31.1304 1753.4 33.3913 1753.4 42.6087C1753.4 52.5217 1749.85 54.2609 1740.12 54.2609H1704.53V31.1304Z" fill="#F6F6F6"/>
<path d="M1878.22 118.261V31.1304H1920V1.73913H1802.97V31.1304H1844.93V118.261H1878.22Z" fill="#F6F6F6"/>
</svg>
