<svg width="220" height="14" viewBox="0 0 220 14" fill="none" xmlns="http://www.w3.org/2000/svg">
<path d="M4.28063 13.7971L5.33557 11.2812H11.7869L12.8216 13.7971H17.2037L11.3203 0.202898H5.86304L0 13.7971H4.28063ZM7.56718 5.94493L8.43953 3.65217H8.70327L9.59591 5.94493L10.3871 7.85217H6.77597L7.56718 5.94493Z" fill="#1E1E1E"/>
<path d="M25.4834 14C30.2307 14 32.4217 11.7072 32.4217 8.09565V0.202898H28.6077V7.7913C28.6077 9.71884 28.0599 10.3072 25.4834 10.3072C22.9069 10.3072 22.3592 9.71884 22.3592 7.7913V0.202898H18.5452V8.09565C18.5452 11.7072 20.7362 14 25.4834 14Z" fill="#1E1E1E"/>
<path d="M42.8966 13.7971V3.63188H47.6844V0.202898H34.2745V3.63188H39.0826V13.7971H42.8966Z" fill="#1E1E1E"/>
<path d="M56.9437 14C61.7924 14 64.5515 11.2406 64.5515 7C64.5515 2.75942 61.7924 0 56.9437 0C52.2168 0 49.4171 2.75942 49.4171 7C49.4171 11.2406 52.2168 14 56.9437 14ZM56.9437 10.3478C54.1846 10.3478 53.4746 9.69855 53.4746 7C53.4746 4.30145 54.1846 3.65217 56.9437 3.65217C59.7028 3.65217 60.494 4.30145 60.494 7C60.494 9.69855 59.7028 10.3478 56.9437 10.3478Z" fill="#1E1E1E"/>
<path d="M74.9007 13.7971V3.63188H79.6885V0.202898H66.2786V3.63188H71.0867V13.7971H74.9007Z" fill="#1E1E1E"/>
<path d="M93.695 13.7971V10.3681H85.4381V8.66377H93.3907V5.25507H85.4381V3.63188H93.695V0.202898H81.624V13.7971H93.695Z" fill="#1E1E1E"/>
<path d="M99.6075 13.7971V0.202898H95.7935V13.7971H99.6075Z" fill="#1E1E1E"/>
<path d="M113.505 13.7971V10.3681H105.654V0.202898H101.84V13.7971H113.505Z" fill="#1E1E1E"/>
<path d="M127.605 13.7971V10.3681H119.348V8.66377H127.301V5.25507H119.348V3.63188H127.605V0.202898H115.534V13.7971H127.605Z" fill="#1E1E1E"/>
<path d="M137.365 13.7971V0.202898H133.551V13.7971H137.365Z" fill="#1E1E1E"/>
<path d="M143.411 13.7971V8.17681L143.269 5.90435H143.533L144.304 8.17681L146.333 12.9855H150.958L152.987 8.17681L153.758 5.90435H154.022L153.88 8.17681V13.7971H157.694V0.202898H152.521L150.147 5.84348L148.869 9.35362H148.605L147.266 5.84348L144.771 0.202898H139.597V13.7971H143.411Z" fill="#1E1E1E"/>
<path d="M163.742 13.7971V10.3681H167.455C170.681 10.3681 172.709 8.50145 172.709 5.27536C172.709 2.04927 170.681 0.202898 167.455 0.202898H159.928V13.7971H163.742ZM167.029 3.63188C168.368 3.63188 168.916 3.89565 168.916 5.27536C168.916 6.67536 168.368 6.93913 167.029 6.93913H163.742V3.63188H167.029Z" fill="#1E1E1E"/>
<path d="M181.857 14C186.706 14 189.465 11.2406 189.465 7C189.465 2.75942 186.706 0 181.857 0C177.13 0 174.331 2.75942 174.331 7C174.331 11.2406 177.13 14 181.857 14ZM181.857 10.3478C179.098 10.3478 178.388 9.69855 178.388 7C178.388 4.30145 179.098 3.65217 181.857 3.65217C184.617 3.65217 185.408 4.30145 185.408 7C185.408 9.69855 184.617 10.3478 181.857 10.3478Z" fill="#1E1E1E"/>
<path d="M195.311 13.7971V9.17101H196.873C198.354 9.17101 198.759 9.45507 199.246 10.4696L200.869 13.7971H205.272L203.588 10.3884C203.081 9.35362 202.634 8.68406 201.235 8.31884V8.11594C203.831 7.7913 204.907 6.51304 204.907 4.36232C204.907 1.70435 203.02 0.202898 199.429 0.202898H191.497V13.7971H195.311ZM195.311 3.63188H199.388C200.504 3.63188 200.91 3.89565 200.91 4.97101C200.91 6.12754 200.504 6.33043 199.388 6.33043H195.311V3.63188Z" fill="#1E1E1E"/>
<path d="M215.212 13.7971V3.63188H220V0.202898H206.59V3.63188H211.398V13.7971H215.212Z" fill="#1E1E1E"/>
</svg>
