<svg width="40" height="40" viewBox="0 0 40 40" fill="none" xmlns="http://www.w3.org/2000/svg">
<g clip-path="url(#clip0_27_771)">
<path d="M5 15C5 11.0218 6.58035 7.20644 9.3934 4.3934C12.2064 1.58035 16.0218 0 20 0C23.9782 0 27.7936 1.58035 30.6066 4.3934C33.4196 7.20644 35 11.0218 35 15C35 25 20 40 20 40C20 40 5 25 5 15ZM13.75 15C13.75 16.6576 14.4085 18.2473 15.5806 19.4194C16.7527 20.5915 18.3424 21.25 20 21.25C21.6576 21.25 23.2473 20.5915 24.4194 19.4194C25.5915 18.2473 26.25 16.6576 26.25 15C26.25 13.3424 25.5915 11.7527 24.4194 10.5806C23.2473 9.40848 21.6576 8.75 20 8.75C18.3424 8.75 16.7527 9.40848 15.5806 10.5806C14.4085 11.7527 13.75 13.3424 13.75 15Z" fill="#1E1E1E"/>
</g>
<defs>
<clipPath id="clip0_27_771">
<rect width="40" height="40" fill="white"/>
</clipPath>
</defs>
</svg>
