<svg width="27" height="27" viewBox="0 0 27 27" fill="none" xmlns="http://www.w3.org/2000/svg">
<path d="M19.0324 9.78486C19.7071 9.11014 20.377 7.53579 17.5656 9.4475C13.5711 12.2038 9.63398 14.7915 9.63398 14.7915C9.22871 14.9748 8.79057 15.0742 8.3459 15.0839C7.90122 15.0935 7.45918 15.0132 7.04633 14.8477C5.35952 14.3417 3.39036 13.667 3.39036 13.667C3.39036 13.667 2.04581 12.8223 4.34744 11.9227C4.34744 11.9227 14.0783 7.92938 17.4532 6.52249C18.7464 5.96022 23.1333 4.16096 23.1333 4.16096C23.1333 4.16096 25.1587 3.37256 24.99 5.28549C24.9338 6.07267 24.484 8.83023 24.0342 11.8103C23.3582 16.0285 22.6273 20.6415 22.6273 20.6415C22.6273 20.6415 22.5148 21.9348 21.559 22.1597C20.5357 22.1423 19.5471 21.7864 18.7476 21.1476C18.5227 20.9789 14.5294 18.4475 13.0663 17.2105C12.9174 17.1097 12.7965 16.9728 12.7148 16.8127C12.633 16.6526 12.5931 16.4744 12.5987 16.2948C12.6043 16.1151 12.6553 15.9397 12.7469 15.785C12.8384 15.6303 12.9677 15.5013 13.1225 15.41C15.1515 13.5545 17.5705 11.248 19.0324 9.78486Z" fill="#179CDE"/>
</svg>
