<svg width="27" height="27" viewBox="0 0 27 27" fill="none" xmlns="http://www.w3.org/2000/svg">
<path d="M13.7142 1.6875C7.30925 1.6875 2.11644 6.8397 2.11644 13.1958C2.11644 15.3701 2.72457 17.4035 3.78069 19.1383L1.6875 25.3125L8.10865 23.2726C9.7702 24.1841 11.6811 24.7042 13.7142 24.7042C20.12 24.7042 25.3125 19.5512 25.3125 13.1958C25.3125 6.8397 20.12 1.6875 13.7142 1.6875ZM19.4813 17.5663C19.2085 18.2428 17.9745 18.8601 17.43 18.8885C16.8861 18.9174 16.8706 19.3101 13.9053 18.0219C10.9403 16.7334 9.15643 13.6004 9.01579 13.3986C8.87504 13.1976 7.86723 11.7614 7.9216 10.3161C7.97634 8.87045 8.76783 8.18844 9.05033 7.90478C9.33251 7.6207 9.65603 7.56981 9.85358 7.56659C10.0871 7.5628 10.2383 7.55963 10.4111 7.56601C10.5838 7.57255 10.8431 7.52989 11.0677 8.12705C11.2921 8.72416 11.8293 10.1918 11.898 10.3413C11.9667 10.491 12.0092 10.6644 11.9034 10.8566C11.7973 11.0492 11.743 11.1696 11.5891 11.3356C11.4343 11.5016 11.2635 11.7069 11.1254 11.8339C10.9714 11.9744 10.8106 12.1277 10.9725 12.4281C11.1343 12.7283 11.6925 13.7125 12.5429 14.5236C13.6358 15.5662 14.5783 15.912 14.8684 16.0696C15.1592 16.228 15.3327 16.2104 15.5131 16.0206C15.6926 15.8308 16.2851 15.1902 16.4937 14.9043C16.7023 14.6175 16.8977 14.6737 17.1657 14.7814C17.4335 14.8897 18.8615 15.6545 19.1523 15.8125C19.4429 15.9701 19.6371 16.0513 19.7066 16.1763C19.776 16.3018 19.7541 16.8899 19.4813 17.5663Z" fill="#49CB5B"/>
</svg>
