<?xml version="1.0" encoding="utf-8"?><svg xmlns="http://www.w3.org/2000/svg" xmlns:xlink="http://www.w3.org/1999/xlink"><symbol viewBox="0 0 60 60" id="advantages-1" xmlns="http://www.w3.org/2000/svg"><path d="M14.39 49.36a3.75 3.75 0 11.007-7.502 3.75 3.75 0 01-.006 7.501zm0-5.626a1.875 1.875 0 10-.015 3.75 1.875 1.875 0 00.016-3.75z"/><path d="M14.39 53.11a7.5 7.5 0 112.485-14.56.94.94 0 01.572 1.2.937.937 0 01-1.2.563 5.55 5.55 0 00-5.86 1.321 5.625 5.625 0 000 7.95 5.625 5.625 0 009.3-5.859.938.938 0 111.763-.6 7.5 7.5 0 01-7.06 10.013v-.029zm19.22-35.063a.937.937 0 01-.657-.281.937.937 0 010-1.322l2.672-2.653a.938.938 0 111.322 1.322l-2.672 2.7a.938.938 0 01-.666.234zM23.005 28.65a.938.938 0 01-.665-1.603l2.653-2.672a.941.941 0 111.331 1.331l-2.653 2.653a.938.938 0 01-.666.291zm-2.653 7.913a.937.937 0 01-.656-.272l-2.653-2.653a.937.937 0 01-.282-.657.936.936 0 01.282-.665l2.643-2.616a.938.938 0 111.322 1.331l-1.978 1.988 1.988 1.987a.937.937 0 010 1.322.937.937 0 01-.666.234zm7.96-13.22a.939.939 0 01-.666-.271.938.938 0 010-1.322l2.653-2.653a.937.937 0 011.322 1.322l-2.644 2.653a.938.938 0 01-.666.272zm14.578 3.985a.937.937 0 01-.657-.281.938.938 0 010-1.322l2.654-2.653a.937.937 0 111.321 1.303l-2.653 2.653a.937.937 0 01-.665.3zM32.288 37.931a.939.939 0 01-.666-1.603l2.653-2.653a.948.948 0 111.35 1.331l-2.653 2.653a.938.938 0 01-.684.272zm-5.307 5.306a.938.938 0 01-.656-.28l-2.653-2.645a.935.935 0 01-.053-1.374.939.939 0 011.375.053l1.987 1.987 1.997-1.987a.94.94 0 011.585.267.938.938 0 01-.263 1.054l-2.653 2.654a.937.937 0 01-.666.271zm10.613-10.612a.938.938 0 01-.666-.272.937.937 0 010-1.322l2.653-2.653a.937.937 0 011.322 1.322l-2.653 2.653a.937.937 0 01-.656.272zm10.603-10.603a.937.937 0 01-.666-1.603l3.319-3.31-7.96-7.959-3.309 3.319a.942.942 0 01-1.331-1.332l3.984-3.974a.937.937 0 011.322 0l9.282 9.28a.937.937 0 010 1.323l-3.976 3.984a.938.938 0 01-.665.272z"/><path d="M16.594 40.369a.937.937 0 01-.657-1.603l3.75-3.75a.938.938 0 111.322 1.321l-3.75 3.75a.938.938 0 01-.665.282zm3.975 3.975a.938.938 0 01-.666-.272.937.937 0 010-1.322l3.75-3.75a.938.938 0 011.34 1.312l-3.75 3.75a.937.937 0 01-.674.282zm11.719-1.885a2.809 2.809 0 01-1.988-.825L18.366 29.7a2.813 2.813 0 013.975-3.975l11.934 11.934a2.813 2.813 0 01-1.987 4.8zM20.352 26.775a.939.939 0 00-.666 1.603l11.935 11.934a.936.936 0 001.603-.656.937.937 0 00-.272-.665L21.02 27.047a.938.938 0 00-.666-.272zm17.24 10.378a2.813 2.813 0 01-1.968-.825L23.672 24.375a2.812 2.812 0 010-3.975 2.888 2.888 0 013.975 0L39.58 32.353a2.812 2.812 0 01-1.987 4.8zm-.665-2.147a.938.938 0 101.322-1.331L26.325 21.75a.938.938 0 10-1.331 1.322l11.934 11.934zm5.963-3.131a2.812 2.812 0 01-1.988-.816L28.978 19.097a2.814 2.814 0 010-3.985 2.888 2.888 0 013.975 0l11.934 11.935a2.813 2.813 0 01-1.996 4.828zm-.657-2.147a.937.937 0 001.322 0 .938.938 0 000-1.322L31.622 16.444a.938.938 0 00-1.322 0 .937.937 0 000 1.322L42.234 29.7v.028zm5.963-3.178a2.81 2.81 0 01-1.988-.825L34.275 13.79a2.813 2.813 0 113.975-3.975L50.184 21.75a2.813 2.813 0 01-1.987 4.8zM36.263 10.866a.937.937 0 00-.638 1.603l11.906 11.906a.937.937 0 001.322 0 .937.937 0 000-1.322L36.928 11.137a.938.938 0 00-.665-.271z"/></symbol><symbol viewBox="0 0 60 60" id="advantages-2" xmlns="http://www.w3.org/2000/svg"><g clip-path="url(#ba)"><path d="M27.5 23.75h-5a1.25 1.25 0 000 2.5h3.75v2.5H22.5A1.25 1.25 0 0021.25 30v5a1.25 1.25 0 001.25 1.25h5a1.25 1.25 0 000-2.5h-3.75v-2.5h3.75A1.25 1.25 0 0028.75 30v-5a1.25 1.25 0 00-1.25-1.25zM36.25 25v3.75h-2.5V25a1.25 1.25 0 00-2.5 0v5a1.25 1.25 0 001.25 1.25h3.75V35a1.25 1.25 0 002.5 0V25a1.25 1.25 0 00-2.5 0z"/><path d="M30 12.5a17.5 17.5 0 100 35 17.5 17.5 0 000-35zM30 45a15 15 0 110-29.998A15 15 0 0130 45z"/><path d="M57.275 24.525c-2.188-.625-4.25-.925-5.362-3.637-1.113-2.713.287-4.576 1.25-6.313A3.75 3.75 0 0052.5 10.1l-2.6-2.6a3.75 3.75 0 00-4.475-.625l-1.75.975a5.287 5.287 0 01-7.65-3.175l-.55-1.912A3.75 3.75 0 0031.862 0h-3.75A3.75 3.75 0 0024.5 2.725c-.575 2.012-.9 4.225-3.613 5.35-2.712 1.125-4.625-.287-6.337-1.25a3.75 3.75 0 00-4.45.675l-2.6 2.6a3.75 3.75 0 00-.638 4.475l.976 1.75a5.288 5.288 0 01-3.163 7.65l-1.925.55A3.75 3.75 0 000 28.138v3.75A3.75 3.75 0 002.725 35.5c2.175.612 4.25.925 5.363 3.638 1.112 2.712-.275 4.575-1.25 6.312A3.75 3.75 0 007.5 49.9l2.6 2.6a3.75 3.75 0 004.475.638l1.775-.988a5.289 5.289 0 017.625 3.15l.55 1.95A3.75 3.75 0 0028.138 60h3.75a3.75 3.75 0 003.612-2.725c.612-2.175.925-4.25 3.638-5.362 2.712-1.113 4.55.275 6.312 1.25a3.75 3.75 0 004.45-.663l2.6-2.6a3.75 3.75 0 00.625-4.475l-.987-1.775a5.286 5.286 0 013.137-7.612l1.975-.563A3.75 3.75 0 0060 31.862v-3.75a3.75 3.75 0 00-2.725-3.587zm.225 7.338c0 1.087-.8 1.175-2.875 1.762a7.788 7.788 0 00-4.638 11.25c.988 1.775 1.575 2.5.776 3.263-2.675 2.675-3.075 3.437-4.125 2.85-2.138-1.25-4.7-2.938-8.538-1.35-5.788 2.387-3.75 7.875-6.25 7.875-5.188 0-4.513.562-5.488-2.863a7.812 7.812 0 00-7.5-5.625c-2.3 0-3.587.888-5.524 1.962-1.05.575-1.45-.175-4.125-2.85-.825-.825-.15-1.587.775-3.262a7.788 7.788 0 00-4.65-11.25c-1.888-.55-2.838-.612-2.838-1.762 0-3.875-.237-4.6.913-4.925 2.5-.726 5.425-1.313 6.974-5.063 1.55-3.75-.087-6.25-1.362-8.512-.575-1.05.175-1.463 2.85-4.125.8-.8 1.5-.2 3.225.762a7.813 7.813 0 0011.25-4.662C26.962 3.3 27 2.5 28.137 2.5c3.825 0 4.6-.237 4.925.913.675 2.337 1.25 5.4 5.063 6.974 5.825 2.413 8.263-2.887 10-1.15 3.638 3.626 3.6 2.775 1.862 5.9a7.787 7.787 0 004.638 11.25c3.45.963 2.875.338 2.875 5.476z"/></g><defs><clipPath id="ba"><path d="M0 0h60v60H0z"/></clipPath></defs></symbol><symbol viewBox="0 0 60 60" id="advantages-3" xmlns="http://www.w3.org/2000/svg"><path d="M36.914 45.937c-.234 0-.445-.023-.68-.093l-13.593-3.399a2.767 2.767 0 01-1.055-.515L8.859 31.969l-5.718-2.86a2.74 2.74 0 01-1.407-1.617 2.77 2.77 0 01.164-2.156l.024-.024L7.687 14.25a2.821 2.821 0 013.75-1.219l5.86 2.93a.885.885 0 01.469.539.986.986 0 01-.07.726L10.57 30.937l12.188 9.54c.094.07.21.14.351.164l13.594 3.398a.958.958 0 00.89-.258l8.602-8.601 3.305-3.868-7.195-13.804a.986.986 0 01-.07-.727.894.894 0 01.468-.539l5.86-2.93a2.821 2.821 0 013.75 1.22l5.765 11.038a2.71 2.71 0 01.188 2.133 2.757 2.757 0 01-1.383 1.64l-.047.024-5.625 2.813-3.633 4.265c-.023.024-.023.047-.047.047l-8.625 8.625c-.515.54-1.242.82-1.992.82zm7.477-28.453l6.632 12.703 4.97-2.484.421.844-.398-.844a.868.868 0 00.468-.563.917.917 0 00-.07-.703l-5.766-11.039A.93.93 0 0049.406 15l-5.015 2.484zm-34.196-2.836a.984.984 0 00-.843.492L3.586 26.18a.879.879 0 00-.047.726c.07.235.234.422.469.54l4.969 2.484 6.632-12.704-5.015-2.484a.77.77 0 00-.399-.094z"/><path d="M46.875 36.773a.798.798 0 01-.539-.187l-9.773-7.102-2.438 1.828c-2.977 2.227-7.148 2.227-10.125 0l-1.266-.96c-.609-.446-.984-1.102-1.101-1.852-.117-.75.094-1.477.539-2.086.07-.117.164-.21.258-.305l9.164-9.164a2.782 2.782 0 011.992-.82h9.539a.94.94 0 01.938.938.94.94 0 01-.938.937h-9.539a.851.851 0 00-.656.281l-9.164 9.164-.094.094c-.14.211-.211.445-.188.703.047.258.164.469.375.61l1.266.96a6.61 6.61 0 007.875 0l3-2.25c.328-.257.773-.257 1.125 0l10.313 7.5a.94.94 0 01.21 1.313.978.978 0 01-.773.398z"/><path d="M26.25 50.836c-.07 0-.14 0-.234-.023l-7.055-1.758a3.3 3.3 0 01-1.172-.61l-5.273-4.617c-.399-.328-.422-.937-.094-1.312.328-.399.937-.422 1.312-.094l5.297 4.594c.117.093.235.164.399.21l7.054 1.758c.493.117.797.633.68 1.149-.117.398-.492.703-.914.703zm12.188-32.813a.687.687 0 01-.376-.093l-8.109-3.657a.912.912 0 00-.656-.046l-12.024 3.515a.963.963 0 01-1.171-.633.963.963 0 01.632-1.172l12.024-3.515a2.79 2.79 0 011.945.14l8.11 3.657c.468.21.68.773.468 1.242a.914.914 0 01-.843.562z"/></symbol><symbol viewBox="0 0 60 60" id="advantages-4" xmlns="http://www.w3.org/2000/svg"><g clip-path="url(#da)"><path d="M33.691 21.533h7.383a.879.879 0 100-1.758h-7.383a.88.88 0 000 1.758zM30 5.449a.879.879 0 100-1.758.879.879 0 000 1.758zm.015 28.498l-4.773 4.773-1.492-1.492a.879.879 0 00-1.243 1.243l2.113 2.113a.877.877 0 001.243 0l5.395-5.394a.88.88 0 00-1.243-1.243zm3.676-8.899h7.383a.879.879 0 100-1.757h-7.383a.88.88 0 000 1.757zm0 15.82h7.383a.879.879 0 100-1.757h-7.383a.88.88 0 000 1.758zm-14.765 2.726h8.076a.879.879 0 100-1.758h-7.197v-7.208h7.197a.879.879 0 100-1.758h-8.076a.879.879 0 00-.88.879v8.966a.879.879 0 00.88.879zm14.765-6.241h7.383a.879.879 0 100-1.758h-7.383a.88.88 0 000 1.758zm-14.765-9.58h8.076a.879.879 0 100-1.757h-7.197v-7.208h7.197a.879.879 0 100-1.758h-8.076a.88.88 0 00-.88.879v8.966a.879.879 0 00.88.878zM47.52 5.156h-8.825a2.146 2.146 0 00-2.068-1.587h-1.834a.369.369 0 01-.342-.276 4.654 4.654 0 00-8.902 0 .369.369 0 01-.342.276h-1.834a2.147 2.147 0 00-2.068 1.587H12.48a4.4 4.4 0 00-4.394 4.395v46.055A4.4 4.4 0 0012.48 60h35.04a4.4 4.4 0 004.394-4.395V9.551a4.4 4.4 0 00-4.395-4.395zm-24.534.558a.387.387 0 01.387-.387h1.834a2.115 2.115 0 002.023-1.52 2.897 2.897 0 015.54 0 2.116 2.116 0 002.023 1.52h1.834a.387.387 0 01.387.387v5.1a.387.387 0 01-.387.387H23.373a.387.387 0 01-.387-.387v-5.1zm-1.606 5.888a2.146 2.146 0 001.993 1.357h13.254a2.146 2.146 0 001.993-1.357h5.384a1.466 1.466 0 011.465 1.464v33.457h-4.98a2.054 2.054 0 00-2.051 2.051v4.98H15.995a1.466 1.466 0 01-1.465-1.464V13.066a1.467 1.467 0 011.465-1.464h5.384zm22.846 36.68l-4.03 4.03v-3.738a.293.293 0 01.292-.293h3.738zm5.93 7.324a2.64 2.64 0 01-2.636 2.636H12.48a2.64 2.64 0 01-2.636-2.636V9.55a2.64 2.64 0 012.636-2.637h8.748v2.93h-5.232a3.227 3.227 0 00-3.223 3.222V52.09a3.226 3.226 0 003.223 3.222h23.32a.838.838 0 00.151-.014.876.876 0 00.095-.022c.004 0 .007 0 .01-.002a.875.875 0 00.072-.025l.01-.004a.87.87 0 00.064-.03l.013-.007a.9.9 0 00.057-.034l.017-.01a.908.908 0 00.051-.038l.018-.013a.873.873 0 00.064-.058l7.031-7.031a.88.88 0 00.058-.064l.013-.018a.906.906 0 00.038-.05l.01-.018a.882.882 0 00.035-.057l.006-.013a.872.872 0 00.03-.065l.004-.01a.873.873 0 00.025-.07l.003-.011a.873.873 0 00.018-.073l.004-.022a.814.814 0 00.014-.15V13.065a3.226 3.226 0 00-3.223-3.222h-5.232v-2.93h8.748a2.64 2.64 0 012.636 2.637v46.055zM23.75 21.407a.879.879 0 00-1.243 1.243l2.113 2.113a.877.877 0 001.243 0l5.395-5.395a.88.88 0 00-1.243-1.242L25.242 22.9l-1.492-1.492z"/></g><defs><clipPath id="da"><path d="M0 0h60v60H0z"/></clipPath></defs></symbol><symbol viewBox="0 0 60 60" id="advantages-5" xmlns="http://www.w3.org/2000/svg"><path fill-rule="evenodd" clip-rule="evenodd" d="M29.96 5.629a.938.938 0 00-.454.135L2.329 22.632a.938.938 0 00.494 1.732h2.802v29.07a.938.938 0 00.938.937h5.625a.938.938 0 00.937-.937v-25.32h33.75v25.32a.938.938 0 00.938.937h5.624a.938.938 0 00.938-.937v-29.07h2.801a.937.937 0 00.495-1.732L30.494 5.764a.938.938 0 00-.534-.135zm.04 2.04l23.884 14.824h-.447a.938.938 0 00-.937.937V52.5h-3.75V27.18a.937.937 0 00-.938-.937H12.188a.938.938 0 00-.938.937V52.5H7.5V23.43a.937.937 0 00-.938-.937h-.446L30 7.668zM24.28 15a.938.938 0 10.095 1.875h11.25a.94.94 0 00.878-1.3.936.936 0 00-.878-.575h-11.25a.945.945 0 00-.095 0zm-3.75 3.75a.939.939 0 10.095 1.875h18.75a.94.94 0 00.878-1.3.936.936 0 00-.878-.575h-18.75a.945.945 0 00-.095 0zm10.393 13.114a.94.94 0 00-.14.011h-3.596a.938.938 0 00-.937.938v7.62l-4.175-1.801a.938.938 0 00-.553-.14.938.938 0 00-.436.125L15.74 40.92a.937.937 0 00-.48.271v.004a.937.937 0 00-.256.916v6.936a.941.941 0 00.036.351l.008.018a.946.946 0 00.084.19c.12.208.316.362.546.43l5.427 2.343a.945.945 0 00.56.11h.004a.973.973 0 00.066-.011.893.893 0 00.117-.026.937.937 0 00.062-.025.951.951 0 00.11-.051l4.226-1.824v1.01a.937.937 0 00.938.938h11.25a.938.938 0 00.937-.938v-18.75a.937.937 0 00-.938-.937h-3.603a.935.935 0 00-.3 0h-3.45a.935.935 0 00-.161-.011zm-2.798 1.886H30v2.637a.936.936 0 001.099 1.091.757.757 0 00.025-.004l.015-.003a.933.933 0 00.161-.055l.015-.004a.89.89 0 00.029-.015l.055-.025.015-.008 1.384-.695 1.457.728a.937.937 0 00.73.048.934.934 0 00.164-.073l.004-.004a.936.936 0 00.153-.11.938.938 0 00.319-.714V33.75H37.5v7.5h-2.593a.939.939 0 00-.447 0h-3.303a.939.939 0 00-.447 0h-2.585v-7.5zm3.75 0h1.875v1.296l-.531-.263a.937.937 0 00-.839 0l-.505.252V33.75zm-10.313 6.705l3.252 1.403-3.252 1.403-1.325-.572-1.93-.831 3.256-1.403zm6.563 2.67H30v2.637a.937.937 0 00.941 1.113.938.938 0 00.498-.147l1.359-.677 1.457.725a.934.934 0 00.26.084.943.943 0 00.187.015h.015a.938.938 0 00.908-.949v-2.801H37.5v7.5h-9.375v-1.428a.945.945 0 000-.096v-5.976zm3.75 0h1.875v1.304l-.531-.268a.939.939 0 00-.454-.095.938.938 0 00-.385.095l-.505.253v-1.289zm-14.996.157l.567.246 2.047.882 1.132.487v5.23l-3.746-1.615v-5.23zm9.367 0v5.23L22.5 50.127v-5.23l3.746-1.615z"/></symbol><symbol viewBox="0 0 60 60" id="advantages-6" xmlns="http://www.w3.org/2000/svg"><path d="M56.719 21.581h-3.825C52.19 9.571 42.216 0 30.028 0 17.831 0 7.866 9.572 7.153 21.581H3.281c-.628 0-1.143.506-1.143 1.144v13.978c0 .628.506 1.144 1.143 1.144h9.272c.628 0 1.144-.506 1.144-1.144V22.725c0-.628-.506-1.144-1.144-1.144H9.431C10.134 10.82 19.087 2.278 30.02 2.278c10.931 0 19.884 8.54 20.587 19.303h-3.169c-.628 0-1.143.506-1.143 1.144v13.978c0 .478.3.89.712 1.06h3.46c-.966 7.425-5.879 13.603-12.563 16.387v-1.66a1.13 1.13 0 00-1.115-1.03H26.221c-.478 0-.881.29-1.06.712v7.116c.17.412.582.712 1.06.712h10.575c.59 0 1.06-.46 1.116-1.031v-2.4c7.959-2.925 13.837-10.125 14.85-18.816h4.378c.412-.169.712-.581.712-1.06V22.726a1.134 1.134 0 00-1.134-1.144zm-45.3 2.288v11.69H4.425V23.87h6.994zm24.234 33.844h-8.287v-3.976h8.287v3.975zm19.922-22.154h-6.994V23.87h6.994v11.69z"/></symbol><symbol viewBox="0 0 60 60" id="advantages-7" xmlns="http://www.w3.org/2000/svg"><g clip-path="url(#ga)"><path d="M21.27 1.875a.965.965 0 00-.645.938v3.75c0 .49.447.937.938.937h1.875v1.875h1.875V7.5h1.875c.49 0 .937-.447.937-.937v-3.75c0-.491-.447-.938-.938-.938h-5.625a.94.94 0 00-.293 0zm3.105 7.5C10.925 9.375 0 20.299 0 33.75 0 47.2 10.924 58.125 24.375 58.125c13.45 0 24.375-10.924 24.375-24.375 0-2.33-.324-4.602-.938-6.738l6.915-4.043a.94.94 0 00.234-.176l2.812-1.582c2.135-1.243 2.884-4.017 1.641-6.152l-1.23-2.051a4.341 4.341 0 00-2.696-2.051c-1.113-.292-2.338-.207-3.398.41l-2.871 1.7a.925.925 0 00-.059.058l-.176.059a.94.94 0 00-.234.175l-6.563 3.809c-4.448-4.774-10.773-7.793-17.812-7.793zM22.5 3.75h3.75v1.875H22.5V3.75zM11.426 5.625a.938.938 0 00-.235.117L7.97 7.617c-.433.243-.601.86-.352 1.29l1.406 2.402c.246.43.86.597 1.29.351.429-.245.596-.86.351-1.289l-.937-1.64 1.64-.938.938 1.64c.183.522.887.778 1.362.496.476-.281.589-1.022.22-1.433L12.48 6.094a.966.966 0 00-1.054-.469zm25.37 0a.948.948 0 00-.526.469l-1.407 2.402c-.369.411-.255 1.152.22 1.433.475.282 1.18.026 1.362-.495l.938-1.641 1.64.937-.937 1.641c-.245.43-.078 1.044.352 1.29.429.245 1.043.077 1.289-.352l1.406-2.403c.25-.428.08-1.046-.352-1.289L37.56 5.742a.95.95 0 00-.762-.117zm-12.42 5.625c6.324 0 11.966 2.713 16.055 6.914l-8.438 4.922a13.005 13.005 0 00-7.617-2.461c-7.238 0-13.125 5.887-13.125 13.125s5.887 13.125 13.125 13.125S37.5 40.988 37.5 33.75c0-.213.008-.43 0-.645l8.496-4.98c.474 1.816.879 3.66.879 5.625 0 12.438-10.063 22.5-22.5 22.5-12.438 0-22.5-10.063-22.5-22.5s10.063-22.5 22.5-22.5zm30.117 1.406c.163.009.307.017.469.059a2.711 2.711 0 011.64 1.23l1.172 2.051a2.586 2.586 0 01-.937 3.574l-2.285 1.348-3.809-6.621 2.285-1.29c.465-.27.976-.377 1.465-.35zm-31.054.469v3.75h1.875v-3.75h-1.875zm25.664 2.11l1.523 2.578-18.691 10.78-1.407-2.402 11.953-7.03a.942.942 0 00.352-.294l6.27-3.633zm-34.22.175l-1.64.938 1.875 3.222 1.64-.937-1.874-3.223zm18.985 0l-1.875 3.223 1.64.937 1.876-3.222-1.64-.938zm17.696 4.043l1.406 2.402-6.504 3.81a.92.92 0 00-.117.058l-.117.058-9.962 5.801-.175.059a.925.925 0 00-.059.058l-1.758.996-.468-.82-.938-1.64 18.691-10.782zM24.375 22.5c2.116 0 4.003.69 5.684 1.7l-1.348.82c-.342.041-.41.527-.41.527l-2.754 4.16c-.478-.172-.973-.293-1.524-.293a4.702 4.702 0 00-4.687 4.688 4.702 4.702 0 004.687 4.687c2.168 0 3.932-1.512 4.454-3.516l5.097-.351 1.055-.234.937-.528C35.342 40.185 30.456 45 24.375 45a11.236 11.236 0 01-11.25-11.25c0-6.224 5.026-11.25 11.25-11.25zm-17.402.117L6.035 24.2l3.281 1.875.938-1.582-3.281-1.875zm22.148 5.04l3.223 5.507-4.395.293-2.754.176 1.524-2.285a.94.94 0 00.058-.176l2.344-3.516zm-5.098 3.632c.152 0 .27.095.41.117l-1.816 2.754a.876.876 0 00-.058.059.942.942 0 00-.059.117v.059a.955.955 0 000 .117.925.925 0 00-.059.058v.118a.955.955 0 000 .117c.019.02.039.04.059.058a.955.955 0 000 .117v.06c.017.04.036.079.059.116a.94.94 0 00.117.117v.059h.058c.017.04.037.08.059.117a.915.915 0 00.117.059h.059v.058h.058a.9.9 0 00.235.059.939.939 0 00.175 0l2.813-.176c-.475.824-1.193 1.465-2.227 1.465a2.798 2.798 0 01-2.812-2.812 2.798 2.798 0 012.812-2.813zM3.75 32.812v1.876H7.5v-1.876H3.75zm37.5 0v1.876H45v-1.876h-3.75zM9.316 41.367l-3.28 1.875.937 1.582 3.28-1.875-.937-1.582zm30.118 0l-.938 1.582 3.281 1.875.938-1.582-3.281-1.875zm-24.317 6.504l-1.875 3.223 1.64.937 1.876-3.222-1.64-.938zm18.516 0l-1.64.938 1.874 3.222 1.64-.937-1.874-3.223zm-10.196 2.754v3.75h1.875v-3.75h-1.875z"/></g><defs><clipPath id="ga"><path d="M0 0h60v60H0z"/></clipPath></defs></symbol><symbol viewBox="0 0 60 60" id="advantages-8" xmlns="http://www.w3.org/2000/svg"><path d="M30 1.2C14.12 1.2 1.2 14.12 1.2 30S14.12 58.8 30 58.8 58.8 45.88 58.8 30 45.88 1.2 30 1.2zm23.9 17.602l-10.004 4.144a15.691 15.691 0 00-6.841-6.84L41.2 6.1a26.563 26.563 0 0112.7 12.7zM30 43.2c-7.278 0-13.2-5.922-13.2-13.2S22.722 16.8 30 16.8 43.2 22.722 43.2 30 37.278 43.2 30 43.2zm8.983-38.024L34.84 15.178A15.52 15.52 0 0030 14.4c-1.69 0-3.314.278-4.84.778L21.017 5.176A26.292 26.292 0 0130 3.6c3.154 0 6.178.558 8.983 1.576zM18.802 6.1l4.144 10.004a15.682 15.682 0 00-6.84 6.841L6.1 18.8A26.563 26.563 0 0118.8 6.1zM5.176 21.017l10.002 4.143A15.526 15.526 0 0014.4 30c0 1.69.278 3.314.778 4.84L5.176 38.983A26.292 26.292 0 013.6 30c0-3.154.558-6.178 1.576-8.983zM6.1 41.198l10.004-4.144a15.692 15.692 0 006.841 6.84L18.8 53.9A26.563 26.563 0 016.1 41.2zm14.917 13.626l4.143-10.002c1.526.5 3.15.778 4.84.778s3.314-.278 4.84-.778l4.143 10.002A26.292 26.292 0 0130 56.4c-3.154 0-6.178-.558-8.983-1.576zm20.181-.924l-4.144-10.004a15.692 15.692 0 006.84-6.841L53.9 41.2a26.564 26.564 0 01-12.7 12.7zm13.626-14.917L44.822 34.84c.5-1.526.778-3.15.778-4.84s-.278-3.314-.778-4.84l10.002-4.143A26.292 26.292 0 0156.4 30c0 3.154-.558 6.178-1.576 8.983z"/></symbol><symbol viewBox="0 0 24 24" id="arrow-down" xmlns="http://www.w3.org/2000/svg"><path d="M12.75 3a.75.75 0 00-.75.75v14.69l-3.219-3.22a.75.75 0 00-1.06 1.061l4.5 4.5a.742.742 0 00.526.219h.003a.73.73 0 00.287-.058.743.743 0 00.242-.163l4.5-4.5a.75.75 0 00-1.06-1.06l-3.219 3.22V3.75a.75.75 0 00-.75-.75z"/></symbol><symbol viewBox="0 0 22 24" id="basket" xmlns="http://www.w3.org/2000/svg"><g clip-path="url(#ja)"><path d="M10.363 18.443a2.046 2.046 0 00-2.045 2.042 2.046 2.046 0 004.09 0 2.046 2.046 0 00-2.045-2.042zm6.134 0a2.046 2.046 0 00-2.045 2.042 2.046 2.046 0 004.089 0 2.046 2.046 0 00-2.044-2.042zm3.978-8.199L7.413 6.891a.614.614 0 00-.75.73L8.67 16.4h-.786L5.482 5.895a.613.613 0 00-.474-.464l-4.27-.882A.614.614 0 00.489 5.75l3.885.802L6.797 17.15a.613.613 0 00.598.477h12.07a.615.615 0 00.607-.53l.858-6.175a.613.613 0 00-.455-.678zm-8.14 3.91a.613.613 0 01-1.227 0v-2.696a.613.613 0 011.227 0v2.696zm2.625 0a.613.613 0 01-1.227 0v-1.88a.613.613 0 011.227 0v1.88zm2.625 0a.613.613 0 01-1.227 0v-1.226a.613.613 0 011.227 0v1.226z"/></g><path fill-rule="evenodd" clip-rule="evenodd" d="M16.268 4.568a2.996 2.996 0 00-1.693-.523c-.627 0-1.21.193-1.693.523-.28-.843-.492-1.752-.492-2.383C12.39.98 13.37 0 14.575 0s2.185.98 2.185 2.185c0 .631-.212 1.54-.492 2.383zm-4.722 2.274l.024.006v-.011l-.024.005zm4.972 1.217c-1.333-.33-2.766-.681-4.129-1.013a2.185 2.185 0 114.129 1.013zm4.436 1.103c-.866-.217-2.155-.538-3.618-.9a2.995 2.995 0 00.243-1.425c.87.18 1.762.45 2.308.765.596.344.969.928 1.067 1.56zM9.869 6.439c-.36-.086-.706-.167-1.03-.243a2.19 2.19 0 01-.376-2.667 2.188 2.188 0 013.147-.7c.098.738.338 1.599.61 2.353a3.01 3.01 0 00-.449.774c-.628.113-1.305.278-1.902.483zm10.124.075a3.43 3.43 0 01-.217.114c-.696-.295-1.587-.526-2.397-.672a3.01 3.01 0 00-.449-.774c.262-.727.494-1.553.599-2.273.095-.067.189-.128.278-.18a2.188 2.188 0 012.986.8 2.188 2.188 0 01-.8 2.985z"/><defs><clipPath id="ja"><path transform="translate(0 3.064)" d="M0 0h20.936v20.936H0z"/></clipPath></defs></symbol><symbol viewBox="0 0 344.96 344.96" id="check" xmlns="http://www.w3.org/2000/svg"><g data-name="Слой 2"><path class="kcls-1" d="M321.85 86.24l-40-23.11-23.1-40H212.5L172.48 0l-40 23.11H86.24l-23.11 40-40 23.1v46.21L0 172.48l23.11 40v46.21l40 23.11 23.11 40h46.21l40 23.1 40-23.11h46.21l23.11-40 40-23.11V212.5l23.11-40-23.11-40V86.24zM156.91 243.07a16.79 16.79 0 01-23.34 0l-50.45-50.44a16.19 16.19 0 010-22.89l13.35-13.35a16.19 16.19 0 0122.89 0l25.87 25.87 80.34-80.35a16.19 16.19 0 0122.89 0l13.35 13.35a16.19 16.19 0 010 22.89z" data-name="Capa 1"/></g></symbol><symbol viewBox="0 0 24 24" id="fb" xmlns="http://www.w3.org/2000/svg"><path d="M13.397 20.997v-8.196h2.765l.411-3.209h-3.176V7.548c0-.926.258-1.56 1.587-1.56h1.684v-2.86A22.108 22.108 0 0014.201 3c-2.444 0-4.122 1.492-4.122 4.231v2.355H7.332v3.21h2.753v8.201h3.312z"/></symbol><symbol viewBox="0 0 24 24" id="instagram" xmlns="http://www.w3.org/2000/svg"><path d="M11.999 7.377a4.624 4.624 0 100 9.248 4.624 4.624 0 000-9.248zm0 7.627a3.004 3.004 0 110-6.008 3.004 3.004 0 010 6.008zm4.807-6.719a1.078 1.078 0 100-2.156 1.078 1.078 0 000 2.156z"/><path d="M20.533 6.11A4.605 4.605 0 0017.9 3.48a6.607 6.607 0 00-2.186-.42c-.963-.042-1.268-.054-3.71-.054s-2.755 0-3.71.054a6.554 6.554 0 00-2.184.42 4.6 4.6 0 00-2.633 2.63 6.585 6.585 0 00-.419 2.186c-.043.962-.056 1.267-.056 3.71 0 2.442 0 2.753.056 3.71.015.748.156 1.486.419 2.187a4.61 4.61 0 002.634 2.632 6.583 6.583 0 002.185.45c.963.042 1.268.055 3.71.055s2.755 0 3.71-.055a6.616 6.616 0 002.186-.42 4.613 4.613 0 002.633-2.632c.263-.7.404-1.438.419-2.186.043-.962.056-1.267.056-3.71s0-2.753-.056-3.71a6.583 6.583 0 00-.421-2.217zm-1.218 9.533a5.046 5.046 0 01-.311 1.688 2.987 2.987 0 01-1.712 1.71c-.535.2-1.1.305-1.67.312-.95.044-1.218.055-3.654.055-2.438 0-2.687 0-3.655-.055a4.961 4.961 0 01-1.67-.311 2.984 2.984 0 01-1.718-1.711 5.08 5.08 0 01-.311-1.67c-.043-.95-.053-1.217-.053-3.653 0-2.437 0-2.686.053-3.655a5.038 5.038 0 01.311-1.687c.305-.79.93-1.41 1.719-1.712a5.01 5.01 0 011.669-.311c.95-.043 1.218-.055 3.655-.055s2.687 0 3.654.055a4.96 4.96 0 011.67.31 2.99 2.99 0 011.712 1.713 5.06 5.06 0 01.311 1.669c.043.95.054 1.218.054 3.655 0 2.436 0 2.698-.043 3.654h-.011v-.001z"/></symbol><symbol viewBox="0 0 30 30" id="map" xmlns="http://www.w3.org/2000/svg"><path d="M28.125 27.96V8.989l-7.5-3.75-.823-.477a5.499 5.499 0 00-.825-1.08 5.632 5.632 0 00-7.954 0 5.599 5.599 0 00-1.648 3.98c0 .138.03.273.04.41l-7.54-3.77v18.97l7.5 3.75.894.447.981-.39 8.394-3.358 8.481 4.239zM26.25 10.147v14.78l-5.625-2.813V7.335l5.625 2.813zM12.349 5.009a3.756 3.756 0 015.302 0c.345.345.61.746.795 1.18l.038.093c.013.032.018.066.03.098.07.191.131.384.169.581a3.724 3.724 0 01-1.031 3.353L15 12.963l-2.651-2.65a3.808 3.808 0 01-.473-.576c-.024-.038-.04-.079-.062-.115a3.712 3.712 0 01-.285-.54 3.75 3.75 0 01.82-4.074zM3.75 22.114V7.335l5.625 2.813v14.778L3.75 22.114zm7.5-10.249l3.75 3.75 3.75-3.75v10.194l-7.5 3V11.865z"/><path d="M15 8.498a1.172 1.172 0 100-2.344 1.172 1.172 0 000 2.344z"/></symbol><symbol viewBox="0 0 20 20" id="phone" xmlns="http://www.w3.org/2000/svg"><path d="M17.067 12.906l-1.374-1.375a2.2 2.2 0 00-3.087-.014 1.345 1.345 0 01-1.705.167 9.392 9.392 0 01-2.588-2.583A1.363 1.363 0 018.49 7.39a2.2 2.2 0 00-.02-3.076L7.097 2.938a2.196 2.196 0 00-3.101 0l-.396.396C1.537 5.396 1.691 9.733 5.983 14.02c2.587 2.588 5.191 3.672 7.303 3.672a4.687 4.687 0 003.386-1.288l.397-.396a2.195 2.195 0 00-.002-3.103zm-.883 2.219l-.397.396c-1.625 1.625-5.211 1.328-8.922-2.383-3.71-3.711-4.008-7.3-2.383-8.925l.393-.396a.944.944 0 011.333 0l1.375 1.375a.944.944 0 01.013 1.319 2.613 2.613 0 00-.332 3.274 10.633 10.633 0 002.946 2.941 2.612 2.612 0 003.27-.323.945.945 0 011.323.008l1.375 1.375a.942.942 0 01.006 1.339z"/></symbol><symbol viewBox="0 0 24 24" id="telegram" xmlns="http://www.w3.org/2000/svg"><path d="M16.114 9.291c.552-.552 1.1-1.84-1.2-.276a395.806 395.806 0 01-6.489 4.372 2.7 2.7 0 01-2.117.046 96.285 96.285 0 01-2.991-.966s-1.1-.691.783-1.427c0 0 7.961-3.267 10.722-4.418 1.058-.46 4.647-1.932 4.647-1.932s1.657-.645 1.519.92c-.046.644-.414 2.9-.782 5.338-.553 3.451-1.151 7.225-1.151 7.225s-.092 1.058-.874 1.242a3.788 3.788 0 01-2.3-.828c-.184-.138-3.451-2.209-4.648-3.221a.873.873 0 01.046-1.473 169.265 169.265 0 004.835-4.602z"/></symbol><symbol viewBox="0 0 16 16" id="viber" xmlns="http://www.w3.org/2000/svg"><path d="M8 1.335c-1.071.013-3.374.19-4.662 1.37-.958.948-1.292 2.35-1.331 4.084-.033 1.728-.072 4.973 3.058 5.856v1.346s-.02.538.337.648c.438.14.688-.275 1.105-.72l.778-.879c2.142.178 3.782-.232 3.97-.293.435-.139 2.883-.451 3.283-3.696.41-3.351-.2-5.463-1.301-6.418h-.007c-.332-.306-1.668-1.279-4.652-1.29 0 0-.222-.014-.578-.008zm.037.942a7.02 7.02 0 01.488.011c2.527.007 3.732.767 4.017 1.023.927.794 1.405 2.697 1.055 5.495-.332 2.713-2.317 2.885-2.685 3.002-.156.05-1.6.406-3.42.289 0 0-1.356 1.634-1.78 2.055-.067.074-.146.095-.196.085-.071-.018-.093-.107-.089-.229l.013-2.233c-2.655-.733-2.498-3.5-2.47-4.946.033-1.446.304-2.628 1.113-3.43 1.088-.982 3.043-1.115 3.953-1.122zm.2 1.446a.166.166 0 100 .332 3.136 3.136 0 012.242.883c.606.588.9 1.378.912 2.411 0 .092.074.167.167.167V7.51a.167.167 0 00.168-.165 3.588 3.588 0 00-1.009-2.646c-.66-.645-1.496-.977-2.48-.977zm-2.198.382a.523.523 0 00-.342.067H5.69a2.61 2.61 0 00-.637.523 1.003 1.003 0 00-.256.525.71.71 0 00.026.302l.01.006c.172.504.396.988.67 1.444a8.48 8.48 0 001.29 1.762l.015.022.024.017.015.018.017.015c.532.505 1.127.94 1.769 1.295.734.4 1.18.588 1.447.667v.004c.078.024.15.034.221.034.228-.016.444-.109.613-.262a2.53 2.53 0 00.517-.638v-.004c.128-.241.085-.469-.1-.623-.37-.323-.77-.61-1.195-.857-.285-.155-.574-.061-.69.095l-.25.315c-.129.156-.361.134-.361.134l-.007.004C7.093 8.527 6.63 6.772 6.63 6.772s-.022-.239.139-.36l.312-.252c.15-.122.254-.41.094-.695a7.498 7.498 0 00-.856-1.194.475.475 0 00-.28-.167zm2.486.495c-.221 0-.221.334.003.334A2.098 2.098 0 0110 5.572 1.94 1.94 0 0110.5 7a.168.168 0 00.167.165l.007.009a.169.169 0 00.167-.167c.015-.662-.191-1.218-.595-1.663C9.84 4.9 9.273 4.65 8.549 4.6h-.024zm.274.898c-.228-.006-.236.335-.01.341.55.029.816.306.851.877a.166.166 0 00.165.163h.007a.168.168 0 00.16-.178c-.039-.744-.445-1.164-1.166-1.202H8.8z"/></symbol><symbol viewBox="0 0 24 24" id="vk" xmlns="http://www.w3.org/2000/svg"><path d="M21.579 6.855c.14-.465 0-.806-.662-.806h-2.193c-.558 0-.813.295-.953.619 0 0-1.115 2.719-2.695 4.482-.51.513-.743.675-1.021.675-.139 0-.341-.162-.341-.627V6.855c0-.558-.161-.806-.626-.806H9.642c-.348 0-.558.258-.558.504 0 .528.79.65.871 2.138v3.228c0 .707-.127.836-.407.836-.743 0-2.551-2.73-3.624-5.853-.209-.607-.42-.852-.98-.852H2.752c-.627 0-.752.295-.752.619 0 .582.743 3.462 3.461 7.27 1.812 2.602 4.363 4.012 6.687 4.012 1.393 0 1.565-.313 1.565-.853v-1.966c0-.626.133-.752.574-.752.324 0 .882.164 2.183 1.417 1.486 1.486 1.732 2.153 2.567 2.153h2.192c.626 0 .939-.313.759-.931-.197-.615-.907-1.51-1.849-2.57-.512-.603-1.277-1.253-1.51-1.578-.325-.42-.231-.604 0-.976.001 0 2.672-3.761 2.95-5.04z"/></symbol><symbol viewBox="0 0 24 24" id="whatsapp" xmlns="http://www.w3.org/2000/svg"><path d="M12.19 1.5C6.497 1.5 1.881 6.08 1.881 11.73c0 1.932.54 3.74 1.48 5.282L1.5 22.5l5.708-1.813a10.33 10.33 0 004.982 1.272c5.694 0 10.31-4.58 10.31-10.23S17.884 1.5 12.19 1.5zm5.127 14.114c-.243.602-1.34 1.15-1.824 1.176-.483.025-.497.375-3.133-.77-2.635-1.146-4.221-3.93-4.346-4.11-.125-.179-1.02-1.455-.973-2.74.05-1.285.753-1.891 1.004-2.144a1.01 1.01 0 01.714-.3c.207-.004.342-.006.495 0 .154.005.384-.033.584.498.2.53.677 1.835.738 1.968.061.133.099.287.005.458-.095.172-.143.278-.28.426-.137.148-.289.33-.412.443-.137.125-.28.261-.136.528.144.267.64 1.142 1.396 1.863.972.927 1.81 1.234 2.067 1.374.259.14.413.125.573-.043.16-.17.687-.739.872-.993.186-.255.36-.205.597-.109.238.096 1.508.776 1.766.917.259.14.431.212.493.323.062.112.042.634-.2 1.236z"/></symbol></svg>