<svg width="60" height="60" viewBox="0 0 60 60" fill="none" xmlns="http://www.w3.org/2000/svg">
<path d="M56.7188 21.5813H52.8938C52.1906 9.57187 42.2156 0 30.0281 0C17.8313 0 7.86564 9.57187 7.15314 21.5813H3.28126C2.65314 21.5813 2.13751 22.0875 2.13751 22.725V36.7031C2.13751 37.3313 2.64376 37.8469 3.28126 37.8469H12.5531C13.1813 37.8469 13.6969 37.3406 13.6969 36.7031V22.725C13.6969 22.0969 13.1906 21.5813 12.5531 21.5813H9.43126C10.1344 10.8188 19.0875 2.27813 30.0188 2.27813C40.95 2.27813 49.9031 10.8188 50.6063 21.5813H47.4375C46.8094 21.5813 46.2938 22.0875 46.2938 22.725V36.7031C46.2938 37.1813 46.5938 37.5938 47.0063 37.7625H50.4656C49.5 45.1875 44.5875 51.3656 37.9031 54.15V52.4906C37.8469 51.9188 37.3781 51.4594 36.7875 51.4594H26.2219C25.7438 51.4594 25.3406 51.75 25.1625 52.1719V59.2875C25.3313 59.7 25.7438 60 26.2219 60H36.7969C37.3875 60 37.8563 59.5406 37.9125 58.9688V56.5687C45.8719 53.6437 51.75 46.4438 52.7625 37.7531H57.1406C57.5531 37.5844 57.8531 37.1719 57.8531 36.6937V22.725C57.8625 22.0969 57.3469 21.5813 56.7188 21.5813ZM11.4188 23.8687V35.5594H4.42501V23.8687H11.4188ZM35.6531 57.7125H27.3656V53.7375H35.6531V57.7125ZM55.575 35.5594H48.5813V23.8687H55.575V35.5594Z" fill="#1E1E1E"/>
</svg>
