<svg width="60" height="60" viewBox="0 0 60 60" fill="none" xmlns="http://www.w3.org/2000/svg">
<path d="M14.3906 49.3594C13.5231 49.3587 12.6826 49.0572 12.0124 48.5064C11.3422 47.9555 10.8837 47.1893 10.7151 46.3383C10.5465 45.4873 10.6781 44.6041 11.0876 43.8393C11.4971 43.0745 12.1591 42.4753 12.9608 42.1439C13.7626 41.8124 14.6544 41.7692 15.4844 42.0215C16.3145 42.2739 17.0313 42.8063 17.5129 43.5279C17.9944 44.2495 18.2108 45.1158 18.1253 45.9791C18.0398 46.8424 17.6575 47.6494 17.0438 48.2625C16.6952 48.6106 16.2815 48.8867 15.8263 49.0749C15.3711 49.2631 14.8832 49.3598 14.3906 49.3594ZM14.3906 43.7344C13.9567 43.7325 13.5356 43.8813 13.1991 44.1551C12.8626 44.429 12.6315 44.8112 12.5452 45.2364C12.4589 45.6616 12.5227 46.1036 12.7258 46.487C12.9289 46.8704 13.2587 47.1716 13.659 47.339C14.0592 47.5065 14.5052 47.53 14.9208 47.4055C15.3365 47.281 15.696 47.0162 15.9383 46.6562C16.1805 46.2962 16.2904 45.8634 16.2493 45.4314C16.2081 44.9995 16.0184 44.5952 15.7125 44.2875C15.3625 43.9354 14.8871 43.7365 14.3906 43.7344Z" fill="#1E1E1E"/>
<path d="M14.3906 53.1094C13.2949 53.1164 12.211 52.8832 11.2151 52.4263C10.2191 51.9694 9.33544 51.2998 8.62612 50.4646C7.91681 49.6295 7.3991 48.649 7.10943 47.5923C6.81976 46.5355 6.76516 45.4281 6.94947 44.348C7.13378 43.2679 7.55252 42.2412 8.17624 41.3404C8.79996 40.4395 9.6135 39.6862 10.5596 39.1335C11.5058 38.5808 12.5615 38.2421 13.6526 38.1413C14.7437 38.0405 15.8436 38.18 16.875 38.55C16.9915 38.591 17.0988 38.6546 17.1907 38.7371C17.2826 38.8197 17.3573 38.9196 17.4104 39.0311C17.4635 39.1426 17.4941 39.2636 17.5004 39.3869C17.5066 39.5103 17.4885 39.6337 17.4469 39.75C17.3623 39.9837 17.1883 40.1742 16.9633 40.2796C16.7383 40.3851 16.4806 40.3969 16.2469 40.3125C15.2463 39.9474 14.1619 39.8779 13.1229 40.1123C12.0839 40.3467 11.1344 40.8751 10.3875 41.6344C9.33413 42.6891 8.74246 44.1188 8.74246 45.6094C8.74246 47.1 9.33413 48.5297 10.3875 49.5844C11.2874 50.4999 12.4734 51.08 13.7486 51.2284C15.0237 51.3769 16.3113 51.0846 17.3974 50.4003C18.4836 49.716 19.3029 48.6808 19.7195 47.4665C20.1361 46.2522 20.1248 44.932 19.6875 43.725C19.6303 43.6055 19.599 43.4753 19.5958 43.3428C19.5926 43.2104 19.6174 43.0788 19.6688 42.9567C19.7201 42.8345 19.7968 42.7247 19.8937 42.6343C19.9905 42.544 20.1055 42.4752 20.2309 42.4325C20.3563 42.3898 20.4893 42.3742 20.6212 42.3867C20.7531 42.3991 20.8809 42.4394 20.996 42.5048C21.1112 42.5703 21.2113 42.6594 21.2895 42.7663C21.3677 42.8732 21.4225 42.9954 21.45 43.125C21.8521 44.256 21.9769 45.467 21.8139 46.6562C21.6508 47.8455 21.2047 48.9782 20.513 49.9593C19.8213 50.9403 18.9043 51.741 17.8389 52.294C16.7735 52.8471 15.591 53.1363 14.3906 53.1375V53.1094ZM33.6094 18.0469C33.3621 18.0434 33.1262 17.9423 32.9531 17.7656C32.7785 17.59 32.6805 17.3524 32.6805 17.1047C32.6805 16.857 32.7785 16.6194 32.9531 16.4438L35.625 13.7906C35.709 13.6925 35.8125 13.6128 35.9288 13.5565C36.0451 13.5002 36.1718 13.4686 36.3009 13.4636C36.43 13.4586 36.5588 13.4804 36.6791 13.5275C36.7994 13.5747 36.9086 13.6462 37 13.7375C37.0914 13.8289 37.1628 13.9382 37.21 14.0585C37.2571 14.1788 37.2789 14.3075 37.2739 14.4366C37.2689 14.5657 37.2373 14.6924 37.181 14.8087C37.1247 14.925 37.045 15.0285 36.9469 15.1125L34.275 17.8125C34.0921 17.9743 33.8533 18.0584 33.6094 18.0469ZM23.0063 28.65C22.8829 28.6507 22.7606 28.6271 22.6463 28.5804C22.5321 28.5338 22.4282 28.465 22.3406 28.3781C22.2528 28.291 22.183 28.1873 22.1354 28.0731C22.0878 27.9588 22.0633 27.8363 22.0633 27.7125C22.0633 27.5887 22.0878 27.4662 22.1354 27.352C22.183 27.2377 22.2528 27.134 22.3406 27.0469L24.9938 24.375C25.1703 24.1985 25.4097 24.0993 25.6594 24.0993C25.909 24.0993 26.1485 24.1985 26.325 24.375C26.5015 24.5515 26.6007 24.791 26.6007 25.0406C26.6007 25.2903 26.5015 25.5297 26.325 25.7063L23.6719 28.3594C23.5858 28.4497 23.4827 28.5219 23.3684 28.5718C23.2541 28.6217 23.131 28.6483 23.0063 28.65ZM20.3531 36.5625C20.1072 36.5615 19.8715 36.4638 19.6969 36.2906L17.0438 33.6375C16.8671 33.4644 16.766 33.2285 16.7625 32.9813C16.763 32.8572 16.7881 32.7345 16.8364 32.6203C16.8847 32.506 16.9552 32.4025 17.0438 32.3156L19.6875 29.7C19.8632 29.5254 20.1008 29.4274 20.3484 29.4274C20.5961 29.4274 20.8337 29.5254 21.0094 29.7C21.0973 29.7872 21.167 29.8909 21.2146 30.0051C21.2622 30.1193 21.2867 30.2419 21.2867 30.3656C21.2867 30.4894 21.2622 30.6119 21.2146 30.7262C21.167 30.8404 21.0973 30.9441 21.0094 31.0313L19.0313 33.0188L21.0188 35.0063C21.1934 35.1819 21.2914 35.4195 21.2914 35.6672C21.2914 35.9149 21.1934 36.1525 21.0188 36.3281C20.8359 36.49 20.5971 36.5741 20.3531 36.5625ZM28.3125 23.3438C28.1891 23.3445 28.0668 23.3208 27.9526 23.2742C27.8384 23.2275 27.7345 23.1588 27.6469 23.0719C27.4723 22.8962 27.3743 22.6586 27.3743 22.4109C27.3743 22.1633 27.4723 21.9257 27.6469 21.75L30.3 19.0969C30.4793 18.9433 30.71 18.863 30.946 18.8722C31.1819 18.8813 31.4058 18.9791 31.5727 19.146C31.7397 19.313 31.8375 19.5368 31.8466 19.7728C31.8557 20.0087 31.7755 20.2394 31.6219 20.4188L28.9781 23.0719C28.8905 23.1588 28.7866 23.2275 28.6724 23.2742C28.5582 23.3208 28.4359 23.3445 28.3125 23.3438ZM42.8906 27.3281C42.6433 27.3246 42.4075 27.2235 42.2344 27.0469C42.0598 26.8712 41.9618 26.6336 41.9618 26.3859C41.9618 26.1383 42.0598 25.9007 42.2344 25.725L44.8875 23.0719C44.9673 22.9639 45.0694 22.8743 45.1869 22.8092C45.3044 22.7441 45.4345 22.705 45.5684 22.6945C45.7022 22.684 45.8368 22.7025 45.963 22.7485C46.0891 22.7946 46.2039 22.8672 46.2996 22.9615C46.3952 23.0558 46.4695 23.1695 46.5173 23.295C46.5652 23.4205 46.5856 23.5548 46.577 23.6888C46.5685 23.8229 46.5312 23.9535 46.4678 24.0719C46.4044 24.1903 46.3162 24.2936 46.2094 24.375L43.5563 27.0281C43.471 27.1201 43.3682 27.1941 43.2538 27.2456C43.1395 27.2971 43.016 27.3252 42.8906 27.3281ZM32.2875 37.9313C32.1641 37.932 32.0418 37.9083 31.9276 37.8617C31.8134 37.815 31.7095 37.7463 31.6219 37.6594C31.534 37.5722 31.4643 37.4685 31.4167 37.3543C31.3691 37.2401 31.3446 37.1175 31.3446 36.9938C31.3446 36.87 31.3691 36.7475 31.4167 36.6332C31.4643 36.519 31.534 36.4153 31.6219 36.3281L34.275 33.675C34.4515 33.496 34.692 33.3944 34.9434 33.3927C35.1948 33.3909 35.4366 33.4891 35.6156 33.6656C35.7947 33.8422 35.8962 34.0826 35.898 34.334C35.8997 34.5854 35.8015 34.8272 35.625 35.0063L32.9719 37.6594C32.8821 37.7485 32.7751 37.8186 32.6575 37.8653C32.5399 37.9121 32.414 37.9345 32.2875 37.9313ZM26.9813 43.2375C26.734 43.234 26.4981 43.1329 26.325 42.9563L23.6719 40.3125C23.5737 40.2285 23.494 40.125 23.4378 40.0087C23.3815 39.8924 23.3499 39.7657 23.3449 39.6366C23.3399 39.5075 23.3617 39.3788 23.4088 39.2585C23.4559 39.1381 23.5274 39.0289 23.6188 38.9375C23.7101 38.8462 23.8194 38.7747 23.9397 38.7275C24.06 38.6804 24.1888 38.6586 24.3179 38.6636C24.447 38.6686 24.5737 38.7002 24.69 38.7565C24.8063 38.8128 24.9097 38.8925 24.9938 38.9906L26.9813 40.9781L28.9781 38.9906C29.0622 38.8925 29.1656 38.8128 29.2819 38.7565C29.3982 38.7002 29.5249 38.6686 29.654 38.6636C29.7831 38.6586 29.9119 38.6804 30.0322 38.7275C30.1525 38.7747 30.2618 38.8462 30.3531 38.9375C30.4445 39.0289 30.516 39.1381 30.5631 39.2585C30.6102 39.3788 30.632 39.5075 30.627 39.6366C30.622 39.7657 30.5904 39.8924 30.5341 40.0087C30.4778 40.125 30.3981 40.2285 30.3 40.3125L27.6469 42.9656C27.5593 43.0525 27.4554 43.1213 27.3412 43.1679C27.2269 43.2146 27.1046 43.2382 26.9813 43.2375ZM37.5938 32.625C37.4704 32.6257 37.3481 32.6021 37.2338 32.5554C37.1196 32.5088 37.0157 32.44 36.9281 32.3531C36.7535 32.1775 36.6555 31.9399 36.6555 31.6922C36.6555 31.4445 36.7535 31.2069 36.9281 31.0313L39.5813 28.3781C39.7606 28.2245 39.9913 28.1443 40.2272 28.1534C40.4632 28.1625 40.687 28.2603 40.854 28.4273C41.0209 28.5943 41.1187 28.8181 41.1279 29.054C41.137 29.29 41.0567 29.5207 40.9031 29.7L38.25 32.3531C38.0754 32.5263 37.8397 32.624 37.5938 32.625ZM48.1969 22.0219C48.0735 22.0226 47.9512 21.999 47.837 21.9523C47.7227 21.9056 47.6189 21.8369 47.5313 21.75C47.4434 21.6629 47.3736 21.5592 47.326 21.4449C47.2785 21.3307 47.2539 21.2081 47.2539 21.0844C47.2539 20.9606 47.2785 20.8381 47.326 20.7238C47.3736 20.6096 47.4434 20.5059 47.5313 20.4188L50.85 17.1094L42.8906 9.15001L39.5813 12.4688C39.4047 12.6453 39.1653 12.7445 38.9156 12.7445C38.666 12.7445 38.4265 12.6453 38.25 12.4688C38.0735 12.2922 37.9743 12.0528 37.9743 11.8031C37.9743 11.5535 38.0735 11.314 38.25 11.1375L42.2344 7.16251C42.41 6.9879 42.6476 6.88989 42.8953 6.88989C43.143 6.88989 43.3806 6.9879 43.5563 7.16251L52.8375 16.4438C53.0121 16.6194 53.1101 16.857 53.1101 17.1047C53.1101 17.3524 53.0121 17.59 52.8375 17.7656L48.8625 21.75C48.7749 21.8369 48.671 21.9056 48.5568 21.9523C48.4426 21.999 48.3203 22.0226 48.1969 22.0219Z" fill="#1E1E1E"/>
<path d="M16.5938 40.3687C16.4083 40.3679 16.2273 40.3122 16.0736 40.2085C15.9199 40.1049 15.8003 39.958 15.7301 39.7864C15.6598 39.6148 15.642 39.4262 15.679 39.2445C15.7159 39.0628 15.8059 38.8961 15.9375 38.7656L19.6875 35.0156C19.7716 34.9174 19.875 34.8377 19.9913 34.7814C20.1076 34.7252 20.2343 34.6936 20.3634 34.6886C20.4925 34.6836 20.6213 34.7053 20.7416 34.7525C20.8619 34.7996 20.9711 34.8711 21.0625 34.9625C21.1539 35.0538 21.2253 35.1631 21.2725 35.2834C21.3196 35.4037 21.3414 35.5324 21.3364 35.6616C21.3314 35.7907 21.2998 35.9174 21.2435 36.0337C21.1872 36.15 21.1075 36.2534 21.0094 36.3374L17.2594 40.0874C17.1726 40.176 17.069 40.2465 16.9548 40.2948C16.8405 40.3431 16.7178 40.3682 16.5938 40.3687ZM20.5688 44.3437C20.4454 44.3444 20.3231 44.3208 20.2088 44.2741C20.0946 44.2274 19.9907 44.1587 19.9031 44.0718C19.7285 43.8962 19.6305 43.6586 19.6305 43.4109C19.6305 43.1632 19.7285 42.9256 19.9031 42.7499L23.6531 38.9999C23.7393 38.9119 23.842 38.8417 23.9553 38.7934C24.0686 38.745 24.1903 38.7195 24.3135 38.7182C24.4367 38.7169 24.5589 38.7398 24.6732 38.7858C24.7875 38.8317 24.8917 38.8997 24.9797 38.9859C25.0677 39.0721 25.1379 39.1747 25.1863 39.288C25.2346 39.4013 25.2602 39.5231 25.2615 39.6462C25.2628 39.7694 25.2398 39.8917 25.1939 40.006C25.1479 40.1203 25.0799 40.2244 24.9938 40.3124L21.2438 44.0624C21.1558 44.1522 21.0508 44.2233 20.9348 44.2716C20.8189 44.3199 20.6944 44.3444 20.5688 44.3437ZM32.2875 42.4593C31.5418 42.4587 30.8269 42.1619 30.3 41.6343L18.3656 29.6999C17.8688 29.1668 17.5984 28.4616 17.6112 27.733C17.6241 27.0044 17.9193 26.3092 18.4345 25.7939C18.9498 25.2786 19.645 24.9834 20.3737 24.9705C21.1023 24.9577 21.8075 25.2281 22.3406 25.7249L34.275 37.6593C34.8017 38.1867 35.0975 38.9015 35.0975 39.6468C35.0975 40.3921 34.8017 41.107 34.275 41.6343C33.7481 42.1619 33.0332 42.4587 32.2875 42.4593ZM20.3531 26.7749C20.2297 26.7742 20.1074 26.7979 19.9932 26.8445C19.879 26.8912 19.7751 26.9599 19.6875 27.0468C19.5996 27.134 19.5299 27.2377 19.4823 27.3519C19.4347 27.4661 19.4102 27.5887 19.4102 27.7124C19.4102 27.8362 19.4347 27.9587 19.4823 28.073C19.5299 28.1872 19.5996 28.2909 19.6875 28.3781L31.6219 40.3124C31.709 40.4003 31.8127 40.4701 31.927 40.5177C32.0412 40.5652 32.1637 40.5898 32.2875 40.5898C32.4113 40.5898 32.5338 40.5652 32.648 40.5177C32.7623 40.4701 32.866 40.4003 32.9531 40.3124C33.1263 40.1378 33.224 39.9021 33.225 39.6562C33.2257 39.5328 33.2021 39.4105 33.1554 39.2963C33.1088 39.1821 33.04 39.0782 32.9531 38.9906L21.0188 27.0468C20.9312 26.9599 20.8273 26.8912 20.713 26.8445C20.5988 26.7979 20.4765 26.7742 20.3531 26.7749ZM37.5938 37.1531C36.8546 37.1475 36.1473 36.8511 35.625 36.3281L23.6719 24.3749C23.1452 23.8476 22.8494 23.1328 22.8494 22.3874C22.8494 21.6421 23.1452 20.9273 23.6719 20.3999C24.2084 19.8909 24.9198 19.6071 25.6594 19.6071C26.399 19.6071 27.1104 19.8909 27.6469 20.3999L39.5813 32.3531C39.9741 32.7464 40.2416 33.2473 40.3499 33.7926C40.4582 34.3378 40.4025 34.9029 40.1898 35.4165C39.9772 35.9301 39.6171 36.3692 39.155 36.6783C38.6929 36.9874 38.1497 37.1526 37.5938 37.1531ZM36.9281 35.0062C37.1038 35.1808 37.3414 35.2788 37.5891 35.2788C37.8367 35.2788 38.0744 35.1808 38.25 35.0062C38.3379 34.919 38.4076 34.8153 38.4552 34.7011C38.5028 34.5869 38.5273 34.4643 38.5273 34.3406C38.5273 34.2168 38.5028 34.0943 38.4552 33.98C38.4076 33.8658 38.3379 33.7621 38.25 33.6749L26.325 21.7499C26.2379 21.6621 26.1342 21.5923 26.0199 21.5447C25.9057 21.4971 25.7831 21.4726 25.6594 21.4726C25.5356 21.4726 25.4131 21.4971 25.2988 21.5447C25.1846 21.5923 25.0809 21.6621 24.9938 21.7499C24.8206 21.9246 24.7229 22.1602 24.7219 22.4062C24.7212 22.5296 24.7448 22.6519 24.7915 22.7661C24.8381 22.8803 24.9069 22.9842 24.9938 23.0718L36.9281 35.0062ZM42.8906 31.8749C42.1463 31.8768 41.4316 31.5835 40.9031 31.0593L28.9781 19.0968C28.7159 18.8355 28.5079 18.525 28.3659 18.1832C28.224 17.8413 28.1509 17.4748 28.1509 17.1046C28.1509 16.7345 28.224 16.3679 28.3659 16.0261C28.5079 15.6842 28.7159 15.3737 28.9781 15.1124C29.5146 14.6034 30.226 14.3196 30.9656 14.3196C31.7052 14.3196 32.4166 14.6034 32.9531 15.1124L44.8875 27.0468C45.2907 27.4391 45.567 27.9433 45.6807 28.4943C45.7944 29.0453 45.7402 29.6177 45.5252 30.1376C45.3102 30.6575 44.9442 31.1009 44.4746 31.4106C44.0049 31.7203 43.4532 31.8821 42.8906 31.8749ZM42.2344 29.7281C42.41 29.9027 42.6476 30.0007 42.8953 30.0007C43.143 30.0007 43.3806 29.9027 43.5563 29.7281C43.7309 29.5524 43.8289 29.3148 43.8289 29.0671C43.8289 28.8195 43.7309 28.5818 43.5563 28.4062L31.6219 16.4437C31.4462 16.2691 31.2086 16.1711 30.9609 16.1711C30.7133 16.1711 30.4757 16.2691 30.3 16.4437C30.1254 16.6193 30.0274 16.857 30.0274 17.1046C30.0274 17.3523 30.1254 17.5899 30.3 17.7656L42.2344 29.6999V29.7281ZM48.1969 26.5499C47.4512 26.5493 46.7363 26.2525 46.2094 25.7249L34.275 13.7906C33.9987 13.5331 33.777 13.2226 33.6233 12.8776C33.4696 12.5326 33.3869 12.1602 33.3803 11.7825C33.3736 11.4049 33.4431 11.0298 33.5845 10.6796C33.726 10.3294 33.9365 10.0112 34.2036 9.74417C34.4707 9.4771 34.7888 9.26656 35.139 9.12511C35.4892 8.98365 35.8643 8.91418 36.242 8.92085C36.6196 8.92751 36.992 9.01017 37.337 9.16389C37.682 9.31761 37.9925 9.53924 38.25 9.81557L50.1844 21.7499C50.7111 22.2773 51.0069 22.9921 51.0069 23.7374C51.0069 24.4828 50.7111 25.1976 50.1844 25.7249C49.6574 26.2525 48.9425 26.5493 48.1969 26.5499ZM36.2625 10.8656C36.0787 10.87 35.9002 10.9283 35.7493 11.0334C35.5984 11.1384 35.4817 11.2855 35.4138 11.4564C35.3458 11.6272 35.3296 11.8143 35.3672 11.9943C35.4047 12.1743 35.4944 12.3393 35.625 12.4687L47.5313 24.3749C47.7069 24.5496 47.9445 24.6476 48.1922 24.6476C48.4399 24.6476 48.6775 24.5496 48.8531 24.3749C49.0277 24.1993 49.1257 23.9617 49.1257 23.714C49.1257 23.4663 49.0277 23.2287 48.8531 23.0531L36.9281 11.1374C36.8405 11.0506 36.7366 10.9818 36.6224 10.9352C36.5082 10.8885 36.3859 10.8649 36.2625 10.8656Z" fill="#1E1E1E"/>
</svg>
