<svg width="60" height="60" viewBox="0 0 60 60" fill="none" xmlns="http://www.w3.org/2000/svg">
<path d="M36.9141 45.9374C36.6797 45.9374 36.4687 45.9139 36.2344 45.8436L22.6406 42.4452C22.2656 42.3514 21.9141 42.1874 21.5859 41.9296L8.85937 31.9686L3.14062 29.1093C2.46093 28.7811 1.96875 28.1952 1.73437 27.4921C1.5 26.7889 1.54687 26.0155 1.89843 25.3358L1.92187 25.3124L7.6875 14.2499C8.39062 12.8905 10.0781 12.3514 11.4375 13.0311L17.2969 15.9608C17.5312 16.078 17.6953 16.2655 17.7656 16.4999C17.8359 16.7343 17.8125 16.9921 17.6953 17.2264L10.5703 30.9374L22.7578 40.4764C22.8516 40.5468 22.9687 40.6171 23.1094 40.6405L36.7031 44.0389C37.0312 44.1093 37.3594 44.0155 37.5937 43.7811L46.1953 35.1796L49.5 31.3124L42.3047 17.5077C42.1875 17.2733 42.1641 17.0155 42.2344 16.7811C42.3047 16.5468 42.4922 16.3358 42.7031 16.2421L48.5625 13.3124C49.9219 12.6327 51.6094 13.1718 52.3125 14.5311L58.0781 25.5702C58.4297 26.2264 58.5 26.9999 58.2656 27.703C58.0312 28.4296 57.5391 29.0155 56.8828 29.3436L56.8359 29.3671L51.2109 32.1796L47.5781 36.4452C47.5547 36.4686 47.5547 36.4921 47.5312 36.4921L38.9062 45.1171C38.3906 45.6561 37.6641 45.9374 36.9141 45.9374ZM44.3906 17.4843L51.0234 30.1874L55.9922 27.703L56.4141 28.5468L56.0156 27.703C56.25 27.5858 56.4141 27.3983 56.4844 27.1405C56.5547 26.9061 56.5312 26.6483 56.4141 26.4374L50.6484 15.3983C50.4141 14.953 49.8516 14.7655 49.4062 14.9999L44.3906 17.4843ZM10.1953 14.6483C9.86718 14.6483 9.51562 14.8358 9.35156 15.1405L3.58593 26.1796C3.46875 26.4139 3.44531 26.6718 3.53906 26.9061C3.60937 27.1405 3.77343 27.328 4.00781 27.4452L8.97656 29.9296L15.6094 17.2264L10.5937 14.7421C10.4766 14.6718 10.3359 14.6483 10.1953 14.6483Z" fill="#1E1E1E"/>
<path d="M46.875 36.7734C46.6875 36.7734 46.5 36.7266 46.336 36.5859L36.5625 29.4844L34.125 31.3125C31.1485 33.5391 26.9766 33.5391 24 31.3125L22.7344 30.3516C22.125 29.9062 21.75 29.25 21.6328 28.5C21.5156 27.75 21.7266 27.0234 22.1719 26.4141C22.2422 26.2969 22.336 26.2031 22.4297 26.1094L31.5938 16.9453C32.1328 16.4062 32.836 16.125 33.586 16.125H43.125C43.6406 16.125 44.0625 16.5469 44.0625 17.0625C44.0625 17.5781 43.6406 18 43.125 18H33.586C33.3281 18 33.0938 18.0937 32.9297 18.2812L23.7656 27.4453C23.7422 27.4687 23.6953 27.5156 23.6719 27.5391C23.5313 27.75 23.461 27.9844 23.4844 28.2422C23.5313 28.5 23.6485 28.7109 23.8594 28.8516L25.125 29.8125C27.4453 31.5469 30.6797 31.5469 33 29.8125L36 27.5625C36.3281 27.3047 36.7735 27.3047 37.125 27.5625L47.4375 35.0625C47.8594 35.3672 47.9531 35.9531 47.6485 36.375C47.461 36.6328 47.1563 36.7734 46.875 36.7734Z" fill="#1E1E1E"/>
<path d="M26.25 50.8359C26.1797 50.8359 26.1094 50.8359 26.0156 50.8125L18.9609 49.0546C18.5391 48.9375 18.1406 48.7265 17.7891 48.4453L12.5156 43.8281C12.1172 43.5 12.0938 42.8906 12.4219 42.5156C12.75 42.1171 13.3594 42.0937 13.7344 42.4218L19.0313 47.0156C19.1484 47.1093 19.2656 47.1796 19.4297 47.2265L26.4844 48.9843C26.9766 49.1015 27.2813 49.6171 27.1641 50.1328C27.0469 50.5312 26.6719 50.8359 26.25 50.8359ZM38.4375 18.0234C38.2969 18.0234 38.1797 18 38.0625 17.9296L29.9531 14.2734C29.7422 14.1796 29.5078 14.1562 29.2969 14.2265L17.2734 17.7421C16.7813 17.8828 16.2656 17.6015 16.1016 17.1093C15.9609 16.6171 16.2422 16.1015 16.7344 15.9375L28.7578 12.4218C29.3906 12.2343 30.0938 12.2812 30.7031 12.5625L38.8125 16.2187C39.2813 16.4296 39.4922 16.9921 39.2813 17.4609C39.1406 17.8125 38.7891 18.0234 38.4375 18.0234Z" fill="#1E1E1E"/>
</svg>
