<svg width="60" height="60" viewBox="0 0 60 60" fill="none" xmlns="http://www.w3.org/2000/svg">
<path fill-rule="evenodd" clip-rule="evenodd" d="M29.9597 5.62863C29.7992 5.63417 29.6429 5.68082 29.5056 5.76413L2.3291 22.6318C2.15687 22.7397 2.02435 22.9006 1.95151 23.0903C1.87866 23.28 1.86943 23.4883 1.92521 23.6837C1.98099 23.8791 2.09875 24.0512 2.26076 24.1738C2.42277 24.2965 2.62026 24.3633 2.82348 24.364H5.625V53.4338C5.62502 53.6824 5.7238 53.9209 5.89961 54.0967C6.07542 54.2725 6.31386 54.3713 6.5625 54.3713H12.1875C12.4361 54.3713 12.6746 54.2725 12.8504 54.0967C13.0262 53.9209 13.125 53.6824 13.125 53.4338V28.114H46.875V53.4338C46.875 53.6824 46.9738 53.9209 47.1496 54.0967C47.3254 54.2725 47.5639 54.3713 47.8125 54.3713H53.4375C53.6861 54.3713 53.9246 54.2725 54.1004 54.0967C54.2762 53.9209 54.375 53.6824 54.375 53.4338V24.364H57.1765C57.3797 24.3633 57.5772 24.2965 57.7392 24.1738C57.9012 24.0512 58.019 23.8791 58.0748 23.6837C58.1306 23.4883 58.1213 23.28 58.0485 23.0903C57.9756 22.9006 57.8431 22.7397 57.6709 22.6318L30.4944 5.76413C30.3338 5.66638 30.1475 5.61917 29.9597 5.62863ZM30 7.66843L53.8843 22.4926H53.4375C53.1889 22.4927 52.9504 22.5914 52.7746 22.7673C52.5988 22.9431 52.5 23.1815 52.5 23.4301V52.5H48.75V27.1801C48.75 26.9315 48.6512 26.6931 48.4754 26.5173C48.2996 26.3414 48.0611 26.2427 47.8125 26.2426H12.1875C11.9389 26.2427 11.7004 26.3414 11.5246 26.5173C11.3488 26.6931 11.25 26.9315 11.25 27.1801V52.5H7.5V23.4301C7.49997 23.1815 7.40119 22.9431 7.22538 22.7673C7.04957 22.5914 6.81113 22.4927 6.5625 22.4926H6.11572L30 7.66843ZM24.2798 15C24.1567 15.0062 24.036 15.0367 23.9246 15.0896C23.8133 15.1424 23.7134 15.2167 23.6308 15.3082C23.5482 15.3997 23.4844 15.5066 23.443 15.6227C23.4017 15.7388 23.3836 15.862 23.3899 15.9851C23.3961 16.1082 23.4266 16.2289 23.4795 16.3402C23.5324 16.4516 23.6067 16.5514 23.6981 16.634C23.7896 16.7167 23.8965 16.7805 24.0126 16.8218C24.1287 16.8632 24.2519 16.8812 24.375 16.875H35.625C35.7492 16.8767 35.8726 16.8538 35.9879 16.8075C36.1031 16.7611 36.2081 16.6923 36.2965 16.6051C36.385 16.5179 36.4553 16.4139 36.5032 16.2993C36.5512 16.1847 36.5759 16.0617 36.5759 15.9375C36.5759 15.8132 36.5512 15.6902 36.5032 15.5756C36.4553 15.461 36.385 15.357 36.2965 15.2698C36.2081 15.1826 36.1031 15.1138 35.9879 15.0675C35.8726 15.0212 35.7492 14.9982 35.625 15H24.375C24.3433 14.9984 24.3115 14.9984 24.2798 15ZM20.5298 18.75C20.2811 18.7626 20.0477 18.8735 19.8808 19.0582C19.7139 19.243 19.6273 19.4864 19.6399 19.7351C19.6525 19.9837 19.7634 20.2172 19.9481 20.384C20.1329 20.5509 20.3764 20.6376 20.625 20.625H39.375C39.4992 20.6267 39.6226 20.6038 39.7379 20.5575C39.8531 20.5111 39.9581 20.4423 40.0465 20.3551C40.135 20.2679 40.2053 20.1639 40.2532 20.0493C40.3012 19.9347 40.3259 19.8117 40.3259 19.6875C40.3259 19.5632 40.3012 19.4402 40.2532 19.3256C40.2053 19.211 40.135 19.107 40.0465 19.0198C39.9581 18.9326 39.8531 18.8638 39.7379 18.8175C39.6226 18.7712 39.4992 18.7482 39.375 18.75H20.625C20.5933 18.7484 20.5615 18.7484 20.5298 18.75ZM30.9228 31.864C30.8763 31.8642 30.8297 31.8679 30.7837 31.875H27.1875C26.9389 31.875 26.7004 31.9738 26.5246 32.1496C26.3488 32.3254 26.25 32.5638 26.25 32.8125V40.4333L22.0752 38.6316C21.9098 38.5289 21.7165 38.4803 21.5222 38.4924C21.369 38.4976 21.2193 38.5404 21.0864 38.6169L15.7397 40.9204C15.5865 40.9542 15.4442 41.026 15.3259 41.1291C15.3147 41.1398 15.3037 41.1508 15.293 41.1621C15.2818 41.1716 15.2708 41.1814 15.26 41.1914C15.26 41.1926 15.26 41.1938 15.26 41.195C15.1395 41.3109 15.0523 41.4569 15.0072 41.6179C14.9621 41.7789 14.9609 41.949 15.0037 42.1106V49.0466C14.9969 49.1273 15.0006 49.2085 15.0146 49.2883C15.017 49.2969 15.0194 49.3054 15.022 49.3139C15.023 49.3237 15.0243 49.3335 15.0256 49.3432C15.03 49.3617 15.0348 49.38 15.0403 49.3982C15.0427 49.4043 15.0451 49.4104 15.0476 49.4165C15.0551 49.4412 15.0637 49.4657 15.0732 49.4897C15.0756 49.4946 15.0781 49.4995 15.0806 49.5044C15.0905 49.5292 15.1015 49.5537 15.1135 49.5776C15.1194 49.5875 15.1256 49.5972 15.1318 49.6069C15.2522 49.8142 15.4475 49.9676 15.6775 50.0354L21.1047 52.3791C21.112 52.3829 21.1193 52.3865 21.1267 52.3901C21.1714 52.4133 21.218 52.4329 21.2659 52.4487C21.3945 52.4908 21.5306 52.5045 21.665 52.489C21.6663 52.489 21.6675 52.489 21.6687 52.489C21.6908 52.4861 21.7128 52.4824 21.7346 52.478C21.7444 52.4769 21.7542 52.4757 21.7639 52.4743C21.7848 52.4702 21.8056 52.4653 21.8262 52.4597C21.8347 52.4574 21.8433 52.4549 21.8518 52.4524C21.8729 52.4446 21.8936 52.436 21.9141 52.4267C21.9517 52.412 21.9884 52.3949 22.0239 52.3755L26.25 50.5517V51.5625C26.25 51.8111 26.3488 52.0495 26.5246 52.2253C26.7004 52.4012 26.9389 52.4999 27.1875 52.5H38.4375C38.6861 52.4999 38.9246 52.4012 39.1004 52.2253C39.2762 52.0495 39.375 51.8111 39.375 51.5625V42.1875V32.8125C39.375 32.5638 39.2762 32.3254 39.1004 32.1496C38.9246 31.9738 38.6861 31.875 38.4375 31.875H34.834C34.7807 31.8667 34.7268 31.863 34.6728 31.864C34.6263 31.8642 34.5797 31.8679 34.5337 31.875H31.084C31.0307 31.8667 30.9768 31.863 30.9228 31.864ZM28.125 33.75H30V36.3867C29.9722 36.5367 29.9815 36.6913 30.0271 36.8369C30.0726 36.9825 30.1529 37.1149 30.2612 37.2224C30.3694 37.3299 30.5023 37.4094 30.6482 37.4539C30.7942 37.4985 30.9488 37.5067 31.0986 37.478C31.1072 37.4769 31.1157 37.4757 31.1243 37.4743C31.1292 37.4732 31.134 37.4719 31.1389 37.4707C31.1942 37.4573 31.2481 37.4389 31.3 37.4157C31.3049 37.4146 31.3098 37.4133 31.3147 37.4121C31.3245 37.4074 31.3343 37.4025 31.344 37.3974L31.3989 37.3718C31.4038 37.3694 31.4087 37.367 31.4136 37.3645L32.7978 36.6687L34.2554 37.3974C34.4218 37.4807 34.6091 37.5126 34.7937 37.489C34.827 37.4846 34.86 37.4785 34.8926 37.4707C34.9024 37.4684 34.9121 37.4659 34.9219 37.4633C34.9403 37.459 34.9586 37.4541 34.9768 37.4487C34.9793 37.4475 34.9817 37.4463 34.9841 37.445C35.0413 37.426 35.0965 37.4014 35.1489 37.3718C35.1501 37.3706 35.1514 37.3694 35.1526 37.3681C35.179 37.3535 35.2046 37.3376 35.2295 37.3205C35.2307 37.3193 35.2319 37.3181 35.2332 37.3169C35.2585 37.2986 35.283 37.279 35.3064 37.2583C35.328 37.2397 35.3488 37.2201 35.3686 37.1997C35.536 37.0227 35.6279 36.7877 35.625 36.5442V33.75H37.5V41.25H34.9072C34.8305 41.2316 34.7517 41.223 34.6728 41.2243C34.6013 41.2247 34.53 41.2333 34.4604 41.25H31.1572C31.0805 41.2316 31.0017 41.223 30.9228 41.2243C30.8513 41.2247 30.78 41.2333 30.7104 41.25H28.125V33.75ZM31.875 33.75H33.75V35.0464L33.219 34.7827C33.0783 34.7121 32.9222 34.6781 32.7649 34.6838C32.6311 34.6889 32.5 34.7227 32.3804 34.7827L31.875 35.0354V33.75ZM21.5625 40.4553L24.8145 41.8579L21.5625 43.2605L20.2368 42.6892L18.3069 41.8579L21.5625 40.4553ZM28.125 43.125H30V45.7617C29.9754 45.8907 29.9783 46.0234 30.0083 46.1513C30.0383 46.2792 30.0948 46.3993 30.1742 46.5039C30.2536 46.6085 30.3542 46.6953 30.4692 46.7586C30.5843 46.8219 30.7114 46.8603 30.8423 46.8713C30.8752 46.8743 30.9082 46.8755 30.9412 46.875C31.1177 46.874 31.2903 46.8232 31.4392 46.7285L32.7978 46.051L34.2554 46.7761C34.3116 46.8039 34.3705 46.826 34.4311 46.842C34.4589 46.8494 34.487 46.8555 34.5154 46.8603C34.577 46.8714 34.6396 46.8763 34.7021 46.875C34.7046 46.875 34.707 46.875 34.7095 46.875C34.7119 46.875 34.7144 46.875 34.7168 46.875C34.9622 46.8673 35.1949 46.7636 35.3647 46.5863C35.5345 46.4089 35.628 46.172 35.625 45.9265V43.125H37.5V50.625H28.125V49.1967C28.1266 49.165 28.1266 49.1332 28.125 49.1015V43.125ZM31.875 43.125H33.75V44.4287L33.219 44.1613C33.078 44.0921 32.9218 44.0593 32.7649 44.0661C32.6314 44.0701 32.5003 44.1026 32.3804 44.1613L31.875 44.414V43.125ZM16.8787 43.2824L17.4463 43.5278L19.4934 44.4104L20.625 44.8974V50.1269L16.8787 48.5119V43.2824ZM26.2463 43.2824V48.5119L22.5 50.1269V44.8974L26.2463 43.2824Z" fill="#1E1E1E"/>
</svg>
