<svg width="60" height="60" viewBox="0 0 60 60" fill="none" xmlns="http://www.w3.org/2000/svg">
<g clip-path="url(#clip0_27_131)">
<path d="M21.2695 1.87502C20.8823 2.00188 20.6048 2.40553 20.625 2.81252V6.56252C20.625 7.05338 21.0716 7.49997 21.5625 7.50002H23.4375V9.37502H24.375H25.3125V7.50002H27.1875C27.6784 7.49997 28.125 7.05338 28.125 6.56252V2.81252C28.125 2.32166 27.6784 1.87506 27.1875 1.87502H21.5625C21.4656 1.8597 21.3664 1.8597 21.2695 1.87502ZM24.375 9.37502C10.9242 9.37502 0 20.2991 0 33.75C0 47.2009 10.9242 58.125 24.375 58.125C37.8258 58.125 48.75 47.2009 48.75 33.75C48.75 31.4208 48.4261 29.1475 47.8125 27.0117L54.7266 22.9688C54.8132 22.9229 54.8927 22.8634 54.9609 22.793L57.7734 21.211C59.9085 19.9678 60.6573 17.1939 59.4141 15.0586L58.1836 13.0078C57.5601 11.937 56.6019 11.2488 55.4883 10.957C54.3746 10.6651 53.1499 10.75 52.0898 11.3672L49.2188 13.0664C49.1984 13.0851 49.1788 13.1046 49.1602 13.125L48.9844 13.1836C48.8977 13.2295 48.8183 13.289 48.75 13.3594L42.1875 17.168C37.7391 12.394 31.4142 9.37502 24.375 9.37502ZM22.5 3.75002H26.25V5.62502H22.5V3.75002ZM11.4258 5.62502C11.3427 5.65287 11.2635 5.69244 11.1914 5.7422L7.96875 7.6172C7.53644 7.85983 7.36792 8.47775 7.61719 8.90627L9.02344 11.3086C9.26887 11.7381 9.88299 11.9056 10.3125 11.6602C10.742 11.4147 10.9095 10.8006 10.6641 10.3711L9.72656 8.73048L11.3672 7.79298L12.3047 9.43361C12.4879 9.95481 13.1919 10.2109 13.6672 9.92927C14.1425 9.64762 14.2559 8.9071 13.8867 8.49611L12.4805 6.09377C12.2856 5.72802 11.8278 5.52458 11.4258 5.62502ZM36.7969 5.62502C36.5696 5.70563 36.3762 5.87754 36.2695 6.09377L34.8633 8.49611C34.4941 8.9071 34.6075 9.64762 35.0828 9.92927C35.5581 10.2109 36.2621 9.95481 36.4453 9.43361L37.3828 7.79298L39.0234 8.73048L38.0859 10.3711C37.8405 10.8006 38.008 11.4147 38.4375 11.6602C38.867 11.9056 39.4811 11.7381 39.7266 11.3086L41.1328 8.90627C41.3821 8.47775 41.2136 7.85983 40.7812 7.6172L37.5586 5.7422C37.3366 5.59797 37.052 5.55418 36.7969 5.62502ZM24.375 11.25C30.6988 11.25 36.3412 13.963 40.4297 18.1641L31.9922 23.086C29.8414 21.5433 27.2244 20.625 24.375 20.625C17.1374 20.625 11.25 26.5123 11.25 33.75C11.25 40.9877 17.1374 46.875 24.375 46.875C31.6126 46.875 37.5 40.9877 37.5 33.75C37.5 33.5372 37.5081 33.3208 37.5 33.1055L45.9961 28.125C46.4697 29.9411 46.875 31.7852 46.875 33.75C46.875 46.1875 36.8125 56.25 24.375 56.25C11.9375 56.25 1.875 46.1875 1.875 33.75C1.875 21.3126 11.9375 11.25 24.375 11.25ZM54.4922 12.6563C54.6553 12.6649 54.7992 12.6727 54.9609 12.7149C55.6079 12.8836 56.235 13.3159 56.6016 13.9453L57.7734 15.9961C58.5102 17.2615 58.1011 18.8338 56.8359 19.5703L54.5508 20.918L50.7422 14.2969L53.0273 13.0078C53.4923 12.7371 54.0027 12.6304 54.4922 12.6563ZM23.4375 13.125V16.875H25.3125V13.125H23.4375ZM49.1016 15.2344L50.625 17.8125L31.9336 28.5938L30.5273 26.1914L42.4805 19.1602C42.6194 19.0934 42.7413 18.9918 42.832 18.8672L49.1016 15.2344ZM14.8828 15.4102L13.2422 16.3477L15.1172 19.5703L16.7578 18.6328L14.8828 15.4102ZM33.8672 15.4102L31.9922 18.6328L33.6328 19.5703L35.5078 16.3477L33.8672 15.4102ZM51.5625 19.4531L52.9688 21.8555L46.4648 25.6641C46.4245 25.6808 46.3853 25.7004 46.3477 25.7227L46.2305 25.7813L36.2695 31.582L36.0938 31.6406C36.0734 31.6592 36.0538 31.6789 36.0352 31.6992L34.2773 32.6953L33.8086 31.875L32.8711 30.2344L51.5625 19.4531ZM24.375 22.5C26.4912 22.5 28.3782 23.1899 30.0586 24.1992L28.7109 25.0195C28.3693 25.0613 28.3008 25.5469 28.3008 25.5469L25.5469 29.707C25.0689 29.535 24.5738 29.4141 24.0234 29.4141C21.4457 29.4141 19.3359 31.5238 19.3359 34.1016C19.3359 36.6793 21.4457 38.7891 24.0234 38.7891C26.1908 38.7891 27.9549 37.2771 28.4766 35.2735L33.5742 34.9219C33.5742 34.9219 34.313 34.7577 34.6289 34.6875L35.5664 34.1602C35.3418 40.1847 30.4557 45 24.375 45C18.1507 45 13.125 39.9743 13.125 33.75C13.125 27.5258 18.1507 22.5 24.375 22.5ZM6.97266 22.6172L6.03516 24.1992L9.31641 26.0742L10.2539 24.4922L6.97266 22.6172ZM29.1211 27.6563L32.3438 33.1641L27.9492 33.457L25.1953 33.6328L26.7188 31.3477C26.744 31.2912 26.7637 31.2322 26.7773 31.1719L29.1211 27.6563ZM24.0234 31.2891C24.1749 31.2891 24.2938 31.3838 24.4336 31.4063L22.6172 34.1602C22.5968 34.1787 22.5772 34.1984 22.5586 34.2188C22.5364 34.2564 22.5168 34.2956 22.5 34.336C22.4994 34.3555 22.4994 34.375 22.5 34.3945C22.4976 34.4336 22.4976 34.4727 22.5 34.5117C22.4796 34.5303 22.4601 34.5499 22.4414 34.5703C22.4408 34.5898 22.4408 34.6094 22.4414 34.6289C22.4408 34.6484 22.4408 34.668 22.4414 34.6875C22.439 34.7265 22.439 34.7657 22.4414 34.8047C22.46 34.8251 22.4796 34.8446 22.5 34.8633C22.4976 34.9023 22.4976 34.9415 22.5 34.9805C22.4994 35 22.4994 35.0196 22.5 35.0391C22.5167 35.0794 22.5364 35.1186 22.5586 35.1563C22.5941 35.1987 22.6334 35.238 22.6758 35.2735C22.6752 35.293 22.6752 35.3125 22.6758 35.332C22.6953 35.3327 22.7149 35.3327 22.7344 35.332C22.7511 35.3724 22.7707 35.4116 22.793 35.4492C22.8306 35.4715 22.8698 35.4911 22.9102 35.5078C22.9297 35.5084 22.9492 35.5084 22.9688 35.5078C22.9681 35.5273 22.9681 35.5469 22.9688 35.5664C22.9883 35.567 23.0078 35.567 23.0273 35.5664C23.1025 35.5959 23.1815 35.6157 23.2617 35.625C23.3201 35.6305 23.3791 35.6305 23.4375 35.625L26.25 35.4492C25.7749 36.2729 25.0566 36.9141 24.0234 36.9141C22.459 36.9141 21.2109 35.6659 21.2109 34.1016C21.2109 32.5373 22.459 31.2891 24.0234 31.2891ZM3.75 32.8125V34.6875H7.5V32.8125H3.75ZM41.25 32.8125V34.6875H45V32.8125H41.25ZM9.31641 41.3672L6.03516 43.2422L6.97266 44.8242L10.2539 42.9492L9.31641 41.3672ZM39.4336 41.3672L38.4961 42.9492L41.7773 44.8242L42.7148 43.2422L39.4336 41.3672ZM15.1172 47.8711L13.2422 51.0938L14.8828 52.0313L16.7578 48.8086L15.1172 47.8711ZM33.6328 47.8711L31.9922 48.8086L33.8672 52.0313L35.5078 51.0938L33.6328 47.8711ZM23.4375 50.625V54.375H25.3125V50.625H23.4375Z" fill="#1E1E1E"/>
</g>
<defs>
<clipPath id="clip0_27_131">
<rect width="60" height="60" fill="white"/>
</clipPath>
</defs>
</svg>
