<svg width="60" height="60" viewBox="0 0 60 60" fill="none" xmlns="http://www.w3.org/2000/svg">
<g clip-path="url(#clip0_27_102)">
<path d="M33.6914 21.5327H41.0742C41.3073 21.5327 41.5309 21.4401 41.6957 21.2753C41.8605 21.1104 41.9531 20.8869 41.9531 20.6538C41.9531 20.4207 41.8605 20.1971 41.6957 20.0323C41.5309 19.8675 41.3073 19.7749 41.0742 19.7749H33.6914C33.4583 19.7749 33.2348 19.8675 33.0699 20.0323C32.9051 20.1971 32.8125 20.4207 32.8125 20.6538C32.8125 20.8869 32.9051 21.1104 33.0699 21.2753C33.2348 21.4401 33.4583 21.5327 33.6914 21.5327ZM30 5.44922C30.1738 5.44922 30.3438 5.39767 30.4883 5.3011C30.6328 5.20452 30.7455 5.06725 30.812 4.90665C30.8785 4.74606 30.8959 4.56934 30.862 4.39885C30.8281 4.22835 30.7444 4.07175 30.6215 3.94883C30.4986 3.82591 30.342 3.74221 30.1715 3.70829C30.001 3.67438 29.8243 3.69179 29.6637 3.75831C29.5031 3.82483 29.3658 3.93748 29.2692 4.08202C29.1726 4.22655 29.1211 4.39648 29.1211 4.57031C29.1211 4.80341 29.2137 5.02697 29.3785 5.19179C29.5433 5.35662 29.7669 5.44922 30 5.44922ZM30.015 33.9468L25.2419 38.72L23.7503 37.2284C23.5854 37.0643 23.362 36.9722 23.1293 36.9725C22.8966 36.9728 22.6735 37.0654 22.5089 37.2299C22.3443 37.3945 22.2518 37.6176 22.2515 37.8503C22.2512 38.0831 22.3432 38.3064 22.5074 38.4714L24.6204 40.5844C24.702 40.666 24.7989 40.7308 24.9056 40.7749C25.0122 40.8191 25.1265 40.8418 25.2419 40.8418C25.3573 40.8418 25.4716 40.8191 25.5782 40.7749C25.6849 40.7308 25.7818 40.666 25.8634 40.5844L31.2579 35.1898C31.4226 35.0249 31.5151 34.8014 31.5151 34.5684C31.515 34.3354 31.4224 34.1119 31.2576 33.9471C31.0929 33.7824 30.8694 33.6898 30.6364 33.6897C30.4034 33.6897 30.1798 33.7821 30.015 33.9468ZM33.6914 25.0483H41.0742C41.3073 25.0483 41.5309 24.9557 41.6957 24.7909C41.8605 24.6261 41.9531 24.4025 41.9531 24.1694C41.9531 23.9363 41.8605 23.7128 41.6957 23.5479C41.5309 23.3831 41.3073 23.2905 41.0742 23.2905H33.6914C33.4583 23.2905 33.2348 23.3831 33.0699 23.5479C32.9051 23.7128 32.8125 23.9363 32.8125 24.1694C32.8125 24.4025 32.9051 24.6261 33.0699 24.7909C33.2348 24.9557 33.4583 25.0483 33.6914 25.0483ZM33.6914 40.8686H41.0742C41.3073 40.8686 41.5309 40.776 41.6957 40.6112C41.8605 40.4464 41.9531 40.2228 41.9531 39.9897C41.9531 39.7566 41.8605 39.5331 41.6957 39.3682C41.5309 39.2034 41.3073 39.1108 41.0742 39.1108H33.6914C33.4583 39.1108 33.2348 39.2034 33.0699 39.3682C32.9051 39.5331 32.8125 39.7566 32.8125 39.9897C32.8125 40.2228 32.9051 40.4464 33.0699 40.6112C33.2348 40.776 33.4583 40.8686 33.6914 40.8686ZM18.9258 43.5938H27.0015C27.2346 43.5938 27.4582 43.5012 27.623 43.3363C27.7878 43.1715 27.8804 42.9479 27.8804 42.7148C27.8804 42.4817 27.7878 42.2582 27.623 42.0934C27.4582 41.9285 27.2346 41.8359 27.0015 41.8359H19.8047V34.6279H27.0015C27.2346 34.6279 27.4582 34.5353 27.623 34.3705C27.7878 34.2056 27.8804 33.9821 27.8804 33.749C27.8804 33.5159 27.7878 33.2923 27.623 33.1275C27.4582 32.9627 27.2346 32.8701 27.0015 32.8701H18.9258C18.6927 32.8701 18.4691 32.9627 18.3043 33.1275C18.1395 33.2923 18.0469 33.5159 18.0469 33.749V42.7148C18.0469 42.9479 18.1395 43.1715 18.3043 43.3363C18.4691 43.5011 18.6927 43.5938 18.9258 43.5938ZM33.6914 37.353H41.0742C41.3073 37.353 41.5309 37.2604 41.6957 37.0956C41.8605 36.9307 41.9531 36.7072 41.9531 36.4741C41.9531 36.241 41.8605 36.0174 41.6957 35.8526C41.5309 35.6878 41.3073 35.5952 41.0742 35.5952H33.6914C33.4583 35.5952 33.2348 35.6878 33.0699 35.8526C32.9051 36.0174 32.8125 36.241 32.8125 36.4741C32.8125 36.7072 32.9051 36.9307 33.0699 37.0956C33.2348 37.2604 33.4583 37.353 33.6914 37.353ZM18.9258 27.7734H27.0015C27.2346 27.7734 27.4582 27.6808 27.623 27.516C27.7878 27.3512 27.8804 27.1276 27.8804 26.8945C27.8804 26.6614 27.7878 26.4379 27.623 26.273C27.4582 26.1082 27.2346 26.0156 27.0015 26.0156H19.8047V18.8076H27.0015C27.2346 18.8076 27.4582 18.715 27.623 18.5501C27.7878 18.3853 27.8804 18.1618 27.8804 17.9287C27.8804 17.6956 27.7878 17.472 27.623 17.3072C27.4582 17.1423 27.2346 17.0497 27.0015 17.0497H18.9258C18.6927 17.0498 18.4691 17.1424 18.3043 17.3072C18.1395 17.472 18.0469 17.6956 18.0469 17.9287V26.8945C18.0469 27.1276 18.1395 27.3512 18.3043 27.516C18.4691 27.6808 18.6927 27.7734 18.9258 27.7734ZM47.5195 5.15625H38.6954C38.5727 4.70127 38.3036 4.29933 37.9297 4.01245C37.5558 3.72556 37.0979 3.56968 36.6266 3.56884H34.7934C34.7143 3.56578 34.6383 3.53732 34.5766 3.48768C34.515 3.43803 34.471 3.36984 34.4511 3.29321C34.1596 2.34005 33.5698 1.50564 32.7685 0.912804C31.9672 0.319965 30.9968 0 30 0C29.0032 0 28.0328 0.319965 27.2315 0.912804C26.4302 1.50564 25.8404 2.34005 25.5489 3.29321C25.529 3.36984 25.485 3.43803 25.4234 3.48768C25.3617 3.53732 25.2857 3.56578 25.2066 3.56884H23.3734C22.9021 3.56968 22.4442 3.72556 22.0703 4.01245C21.6964 4.29933 21.4273 4.70127 21.3046 5.15625H12.4805C11.3154 5.15756 10.1984 5.62098 9.37451 6.44483C8.55066 7.26868 8.08725 8.38568 8.08594 9.55078V55.6055C8.08725 56.7706 8.55066 57.8876 9.37451 58.7114C10.1984 59.5353 11.3154 59.9987 12.4805 60H47.5195C48.6846 59.9987 49.8016 59.5353 50.6255 58.7114C51.4493 57.8876 51.9128 56.7706 51.9141 55.6055V9.55078C51.9128 8.38568 51.4493 7.26868 50.6255 6.44483C49.8016 5.62098 48.6846 5.15756 47.5195 5.15625ZM22.9863 5.71369C22.9864 5.61108 23.0272 5.51269 23.0998 5.44013C23.1724 5.36757 23.2707 5.32676 23.3734 5.32665H25.2066C25.6627 5.32522 26.1061 5.17645 26.4707 4.90251C26.8354 4.62857 27.1017 4.24412 27.2301 3.80648C27.4117 3.21348 27.7788 2.69441 28.2774 2.32563C28.776 1.95684 29.3798 1.75781 30 1.75781C30.6202 1.75781 31.224 1.95684 31.7226 2.32563C32.2212 2.69441 32.5883 3.21348 32.7699 3.80648C32.8983 4.24412 33.1646 4.62857 33.5293 4.90251C33.8939 5.17645 34.3373 5.32522 34.7934 5.32665H36.6266C36.7293 5.32676 36.8276 5.36757 36.9002 5.44013C36.9728 5.51269 37.0136 5.61108 37.0137 5.71369V10.814C37.0136 10.9166 36.9728 11.015 36.9002 11.0875C36.8276 11.1601 36.7293 11.2009 36.6266 11.201H23.3734C23.2707 11.2009 23.1724 11.1601 23.0998 11.0875C23.0272 11.015 22.9864 10.9166 22.9863 10.814V5.71369ZM21.3803 11.6016C21.5384 12.0014 21.8129 12.3445 22.1683 12.5865C22.5236 12.8285 22.9434 12.9582 23.3734 12.9588H36.6266C37.0566 12.9582 37.4764 12.8285 37.8318 12.5865C38.1871 12.3445 38.4616 12.0014 38.6197 11.6016H44.0039C44.3923 11.602 44.7646 11.7565 45.0392 12.0311C45.3138 12.3057 45.4683 12.678 45.4688 13.0664V46.5234H40.4883C39.9446 46.5241 39.4233 46.7403 39.0388 47.1248C38.6544 47.5092 38.4381 48.0305 38.4375 48.5742V53.5547H15.9961C15.6077 53.5543 15.2354 53.3998 14.9608 53.1252C14.6862 52.8505 14.5317 52.4782 14.5312 52.0898V13.0664C14.5317 12.678 14.6862 12.3057 14.9608 12.0311C15.2354 11.7565 15.6077 11.602 15.9961 11.6016H21.3803ZM44.2258 48.2812L40.1953 52.3117V48.5742C40.1954 48.4965 40.2263 48.4221 40.2812 48.3672C40.3361 48.3122 40.4106 48.2813 40.4883 48.2812H44.2258ZM50.1562 55.6055C50.1555 56.3045 49.8774 56.9747 49.3831 57.469C48.8888 57.9634 48.2186 58.2414 47.5195 58.2422H12.4805C11.7814 58.2414 11.1112 57.9634 10.6169 57.469C10.1226 56.9747 9.84453 56.3045 9.84375 55.6055V9.55078C9.84453 8.85172 10.1226 8.18151 10.6169 7.6872C11.1112 7.19289 11.7814 6.91484 12.4805 6.91406H21.2285V9.84375H15.9961C15.1417 9.84471 14.3226 10.1846 13.7184 10.7887C13.1142 11.3929 12.7744 12.212 12.7734 13.0664V52.0898C12.7744 52.9442 13.1142 53.7634 13.7184 54.3675C14.3226 54.9717 15.1417 55.3115 15.9961 55.3125H39.3164C39.3458 55.3125 39.3751 55.311 39.4041 55.3081C39.4254 55.306 39.4462 55.3023 39.467 55.2987C39.4745 55.2974 39.482 55.2967 39.4894 55.2953C39.5141 55.2903 39.5381 55.284 39.562 55.277C39.5655 55.276 39.5691 55.2754 39.5726 55.2743C39.5969 55.2669 39.6205 55.2582 39.6439 55.2488C39.647 55.2475 39.6503 55.2466 39.6534 55.2453C39.6755 55.2361 39.697 55.2256 39.7181 55.2147C39.7225 55.2125 39.727 55.2107 39.7312 55.2084C39.7508 55.1979 39.7695 55.1862 39.7881 55.1744C39.7937 55.1708 39.7996 55.1677 39.8051 55.164C39.8228 55.1521 39.8397 55.1391 39.8565 55.126C39.8623 55.1215 39.8685 55.1175 39.8742 55.1127C39.8964 55.0945 39.9177 55.0752 39.938 55.0549L46.969 48.024C46.9893 48.0037 47.0086 47.9824 47.0268 47.9601C47.0315 47.9544 47.0355 47.9483 47.0401 47.9424C47.0532 47.9256 47.0662 47.9088 47.0781 47.8911C47.0818 47.8855 47.0849 47.8797 47.0884 47.8741C47.1003 47.8555 47.112 47.8367 47.1225 47.8172C47.1248 47.8129 47.1265 47.8084 47.1288 47.8041C47.1397 47.7829 47.1502 47.7615 47.1594 47.7393C47.1607 47.7362 47.1616 47.733 47.1628 47.7298C47.1722 47.7065 47.181 47.6828 47.1884 47.6586C47.1894 47.6551 47.1901 47.6514 47.1911 47.6479C47.198 47.6241 47.2044 47.6 47.2093 47.5754C47.2108 47.568 47.2114 47.5604 47.2127 47.553C47.2164 47.5322 47.22 47.5114 47.2221 47.4901C47.225 47.4611 47.2265 47.4318 47.2266 47.4023V13.0664C47.2256 12.212 46.8858 11.3929 46.2816 10.7887C45.6774 10.1846 44.8583 9.84472 44.0039 9.84375H38.7715V6.91406H47.5195C48.2186 6.91484 48.8888 7.19289 49.3831 7.6872C49.8774 8.18151 50.1555 8.85172 50.1562 9.55078V55.6055ZM23.7503 21.4081C23.5854 21.2437 23.362 21.1514 23.1291 21.1516C22.8962 21.1518 22.673 21.2444 22.5083 21.409C22.3436 21.5737 22.251 21.797 22.2509 22.0299C22.2507 22.2627 22.343 22.4862 22.5074 22.6511L24.6204 24.7641C24.702 24.8457 24.7989 24.9105 24.9056 24.9546C25.0122 24.9988 25.1265 25.0215 25.2419 25.0215C25.3573 25.0215 25.4716 24.9988 25.5782 24.9546C25.6849 24.9105 25.7818 24.8457 25.8634 24.7641L31.2579 19.3695C31.4226 19.2046 31.5151 18.9811 31.5151 18.7481C31.515 18.5151 31.4224 18.2916 31.2576 18.1268C31.0929 17.962 30.8694 17.8694 30.6364 17.8694C30.4034 17.8693 30.1798 17.9618 30.015 18.1265L25.2419 22.8997L23.7503 21.4081Z" fill="#1E1E1E"/>
</g>
<defs>
<clipPath id="clip0_27_102">
<rect width="60" height="60" fill="white"/>
</clipPath>
</defs>
</svg>
