<svg width="60" height="60" viewBox="0 0 60 60" fill="none" xmlns="http://www.w3.org/2000/svg">
<g clip-path="url(#clip0_27_97)">
<path d="M27.5 23.75H22.5C22.1685 23.75 21.8505 23.8817 21.6161 24.1161C21.3817 24.3505 21.25 24.6685 21.25 25C21.25 25.3315 21.3817 25.6495 21.6161 25.8839C21.8505 26.1183 22.1685 26.25 22.5 26.25H26.25V28.75H22.5C22.1685 28.75 21.8505 28.8817 21.6161 29.1161C21.3817 29.3505 21.25 29.6685 21.25 30V35C21.25 35.3315 21.3817 35.6495 21.6161 35.8839C21.8505 36.1183 22.1685 36.25 22.5 36.25H27.5C27.8315 36.25 28.1495 36.1183 28.3839 35.8839C28.6183 35.6495 28.75 35.3315 28.75 35C28.75 34.6685 28.6183 34.3505 28.3839 34.1161C28.1495 33.8817 27.8315 33.75 27.5 33.75H23.75V31.25H27.5C27.8315 31.25 28.1495 31.1183 28.3839 30.8839C28.6183 30.6495 28.75 30.3315 28.75 30V25C28.75 24.6685 28.6183 24.3505 28.3839 24.1161C28.1495 23.8817 27.8315 23.75 27.5 23.75ZM36.25 25V28.75H33.75V25C33.75 24.6685 33.6183 24.3505 33.3839 24.1161C33.1495 23.8817 32.8315 23.75 32.5 23.75C32.1685 23.75 31.8505 23.8817 31.6161 24.1161C31.3817 24.3505 31.25 24.6685 31.25 25V30C31.25 30.3315 31.3817 30.6495 31.6161 30.8839C31.8505 31.1183 32.1685 31.25 32.5 31.25H36.25V35C36.25 35.3315 36.3817 35.6495 36.6161 35.8839C36.8505 36.1183 37.1685 36.25 37.5 36.25C37.8315 36.25 38.1495 36.1183 38.3839 35.8839C38.6183 35.6495 38.75 35.3315 38.75 35V25C38.75 24.6685 38.6183 24.3505 38.3839 24.1161C38.1495 23.8817 37.8315 23.75 37.5 23.75C37.1685 23.75 36.8505 23.8817 36.6161 24.1161C36.3817 24.3505 36.25 24.6685 36.25 25Z" fill="#1E1E1E"/>
<path d="M30 12.5C26.5388 12.5 23.1554 13.5264 20.2775 15.4493C17.3997 17.3722 15.1566 20.1053 13.8321 23.303C12.5076 26.5007 12.161 30.0194 12.8363 33.4141C13.5115 36.8088 15.1782 39.927 17.6256 42.3744C20.0731 44.8218 23.1913 46.4885 26.5859 47.1637C29.9806 47.839 33.4993 47.4924 36.697 46.1679C39.8947 44.8434 42.6278 42.6003 44.5507 39.7225C46.4737 36.8446 47.5 33.4612 47.5 30C47.5 25.3587 45.6563 20.9075 42.3744 17.6256C39.0925 14.3437 34.6413 12.5 30 12.5ZM30 45C27.0333 45 24.1332 44.1203 21.6665 42.472C19.1997 40.8238 17.2771 38.4811 16.1418 35.7403C15.0065 32.9994 14.7095 29.9834 15.2882 27.0736C15.867 24.1639 17.2956 21.4912 19.3934 19.3934C21.4912 17.2956 24.1639 15.867 27.0737 15.2882C29.9834 14.7094 32.9994 15.0065 35.7403 16.1418C38.4811 17.2771 40.8238 19.1997 42.472 21.6664C44.1203 24.1332 45 27.0333 45 30C45 33.9782 43.4197 37.7936 40.6066 40.6066C37.7936 43.4197 33.9783 45 30 45Z" fill="#1E1E1E"/>
<path d="M57.275 24.525C55.0875 23.9 53.025 23.6 51.9125 20.8875C50.8 18.175 52.2 16.3125 53.1625 14.575C53.5543 13.8587 53.7016 13.034 53.582 12.2264C53.4625 11.4187 53.0825 10.6721 52.5 10.1L49.9 7.5C49.3234 6.92351 48.5747 6.55062 47.7672 6.43784C46.9597 6.32507 46.1375 6.47854 45.425 6.875L43.675 7.85C42.9786 8.2363 42.204 8.4603 41.4089 8.50529C40.6138 8.55029 39.8188 8.4151 39.0833 8.10984C38.3478 7.80457 37.6907 7.33711 37.1611 6.74234C36.6316 6.14758 36.2432 5.44088 36.025 4.675L35.475 2.7625C35.2586 1.96988 34.788 1.27025 34.1353 0.771158C33.4826 0.272064 32.6841 0.00113087 31.8625 3.74963e-06H28.1125C27.2958 -0.00115086 26.501 0.264376 25.8489 0.756227C25.1969 1.24808 24.7232 1.93936 24.5 2.725C23.925 4.7375 23.6 6.95 20.8875 8.075C18.175 9.2 16.2625 7.7875 14.55 6.825C13.8351 6.44082 13.0149 6.29894 12.2125 6.42065C11.4101 6.54236 10.6688 6.92111 10.1 7.5L7.5 10.1C6.9215 10.6751 6.54627 11.4231 6.43123 12.2307C6.31619 13.0382 6.4676 13.8613 6.8625 14.575L7.8375 16.325C8.22395 17.0206 8.44842 17.7944 8.4942 18.5888C8.53997 19.3832 8.40586 20.1776 8.10187 20.913C7.79788 21.6483 7.33184 22.3056 6.7385 22.8358C6.14515 23.3659 5.43979 23.7554 4.675 23.975L2.75 24.525C1.95971 24.7437 1.26286 25.2153 0.766187 25.8678C0.269509 26.5202 0.000377267 27.3175 3.74963e-06 28.1375V31.8875C-0.00115086 32.7043 0.264376 33.499 0.756227 34.1511C1.24808 34.8031 1.93936 35.2768 2.725 35.5C4.9 36.1125 6.975 36.425 8.0875 39.1375C9.2 41.85 7.8125 43.7125 6.8375 45.45C6.45177 46.1636 6.30783 46.9831 6.42728 47.7854C6.54673 48.5877 6.92313 49.3297 7.5 49.9L10.1 52.5C10.6751 53.0785 11.4231 53.4537 12.2307 53.5688C13.0382 53.6838 13.8613 53.5324 14.575 53.1375L16.35 52.15C17.0438 51.7682 17.8145 51.547 18.6052 51.5029C19.3959 51.4589 20.1864 51.593 20.9184 51.8953C21.6503 52.1977 22.305 52.6606 22.834 53.2499C23.3631 53.8392 23.753 54.5398 23.975 55.3L24.525 57.25C24.7437 58.0403 25.2153 58.7371 25.8678 59.2338C26.5202 59.7305 27.3175 59.9996 28.1375 60H31.8875C32.7043 60.0012 33.499 59.7356 34.1511 59.2438C34.8031 58.7519 35.2768 58.0606 35.5 57.275C36.1125 55.1 36.425 53.025 39.1375 51.9125C41.85 50.8 43.6875 52.1875 45.45 53.1625C46.1636 53.5482 46.9831 53.6922 47.7854 53.5727C48.5877 53.4533 49.3297 53.0769 49.9 52.5L52.5 49.9C53.0765 49.3234 53.4494 48.5747 53.5622 47.7672C53.6749 46.9597 53.5215 46.1375 53.125 45.425L52.1375 43.65C51.7578 42.9575 51.5381 42.1888 51.4945 41.4002C51.4509 40.6117 51.5844 39.8234 51.8854 39.0933C52.1863 38.3631 52.647 37.7096 53.2335 37.1809C53.8201 36.6521 54.5177 36.2614 55.275 36.0375L57.25 35.475C58.0403 35.2563 58.7371 34.7847 59.2338 34.1322C59.7305 33.4798 59.9996 32.6825 60 31.8625V28.1125C59.9957 27.3 59.7277 26.5109 59.2363 25.8639C58.7448 25.217 58.0565 24.7471 57.275 24.525ZM57.5 31.8625C57.5 32.95 56.7 33.0375 54.625 33.625C53.5028 33.9515 52.4684 34.5263 51.5986 35.307C50.7288 36.0877 50.0459 37.0541 49.6005 38.1346C49.1551 39.2152 48.9586 40.3821 49.0256 41.5489C49.0926 42.7158 49.4213 43.8525 49.9875 44.875C50.975 46.65 51.5625 47.375 50.7625 48.1375C48.0875 50.8125 47.6875 51.575 46.6375 50.9875C44.5 49.7375 41.9375 48.05 38.1 49.6375C32.3125 52.025 34.35 57.5125 31.85 57.5125C26.6625 57.5125 27.3375 58.075 26.3625 54.65C25.8892 53.0272 24.9023 51.6017 23.55 50.5875C22.1977 49.5733 20.5529 49.025 18.8625 49.025C16.5625 49.025 15.275 49.9125 13.3375 50.9875C12.2875 51.5625 11.8875 50.8125 9.2125 48.1375C8.3875 47.3125 9.0625 46.55 9.9875 44.875C10.5535 43.8517 10.8818 42.7141 10.948 41.5466C11.0142 40.3791 10.8167 39.2116 10.37 38.1309C9.92327 37.0502 9.23893 36.084 8.36772 35.3039C7.49652 34.5239 6.46082 33.95 5.3375 33.625C3.45 33.075 2.5 33.0125 2.5 31.8625C2.5 27.9875 2.2625 27.2625 3.4125 26.9375C5.9125 26.2125 8.8375 25.625 10.3875 21.875C11.9375 18.125 10.3 15.625 9.025 13.3625C8.45 12.3125 9.2 11.9 11.875 9.2375C12.675 8.4375 13.375 9.0375 15.1 10C16.125 10.561 17.2629 10.885 18.4297 10.948C19.5965 11.011 20.7626 10.8115 21.8421 10.3641C22.9215 9.91668 23.8869 9.23285 24.6671 8.36292C25.4473 7.493 26.0223 6.45914 26.35 5.3375C26.9625 3.3 27 2.5 28.1375 2.5C31.9625 2.5 32.7375 2.2625 33.0625 3.4125C33.7375 5.75 34.3125 8.8125 38.125 10.3875C43.95 12.8 46.3875 7.5 48.125 9.2375C51.7625 12.8625 51.725 12.0125 49.9875 15.1375C49.4213 16.16 49.0926 17.2967 49.0256 18.4636C48.9586 19.6304 49.1551 20.7973 49.6005 21.8779C50.0459 22.9584 50.7288 23.9249 51.5986 24.7055C52.4684 25.4862 53.5028 26.061 54.625 26.3875C58.075 27.35 57.5 26.725 57.5 31.8625Z" fill="#1E1E1E"/>
</g>
<defs>
<clipPath id="clip0_27_97">
<rect width="60" height="60" fill="white"/>
</clipPath>
</defs>
</svg>
