<svg width="60" height="60" viewBox="0 0 60 60" fill="none" xmlns="http://www.w3.org/2000/svg">
<path d="M30 1.19995C14.1204 1.19995 1.19995 14.1204 1.19995 30C1.19995 45.8796 14.1204 58.8 30 58.8C45.8796 58.8 58.8 45.8796 58.8 30C58.8 14.1204 45.8796 1.19995 30 1.19995ZM53.9004 18.8016L43.896 22.9464C42.3931 20.0023 39.9988 17.6081 37.0548 16.1052L41.1996 6.10075C46.7795 8.73115 51.27 13.2216 53.9004 18.8016ZM30 43.2C22.722 43.2 16.8 37.278 16.8 30C16.8 22.722 22.722 16.8 30 16.8C37.278 16.8 43.2 22.722 43.2 30C43.2 37.278 37.278 43.2 30 43.2ZM38.9832 5.17555L34.8396 15.1776C33.2777 14.6637 31.6442 14.4012 30 14.4C28.3092 14.4 26.6856 14.6784 25.1604 15.1776L21.0168 5.17555C23.8224 4.15795 26.8464 3.59995 30 3.59995C33.1536 3.59995 36.1776 4.15795 38.9832 5.17555ZM18.8016 6.09955L22.9464 16.104C20.002 17.6064 17.6076 20.0008 16.1052 22.9452L6.10075 18.8004C8.73115 13.2204 13.2216 8.72995 18.8016 6.09955ZM5.17555 21.0168L15.1776 25.1604C14.6638 26.7222 14.4013 28.3558 14.4 30C14.4 31.6908 14.6784 33.3144 15.1776 34.8396L5.17555 38.9832C4.15795 36.1776 3.59995 33.1536 3.59995 30C3.59995 26.8464 4.15795 23.8224 5.17555 21.0168ZM6.09955 41.1984L16.104 37.0536C17.6069 39.9976 20.0011 42.3918 22.9452 43.8948L18.8004 53.8992C13.2204 51.2688 8.72995 46.7783 6.09955 41.1984ZM21.0168 54.8244L25.1604 44.8224C26.6856 45.3216 28.3092 45.6 30 45.6C31.6908 45.6 33.3144 45.3216 34.8396 44.8224L38.9832 54.8244C36.1776 55.842 33.1536 56.4 30 56.4C26.8464 56.4 23.8224 55.842 21.0168 54.8244ZM41.1984 53.9004L37.0536 43.896C39.9976 42.3931 42.3918 39.9988 43.8948 37.0548L53.8992 41.1996C51.2688 46.7795 46.7783 51.27 41.1984 53.9004ZM54.8244 38.9832L44.8224 34.8396C45.3216 33.3144 45.6 31.6908 45.6 30C45.6 28.3092 45.3216 26.6856 44.8224 25.1604L54.8244 21.0168C55.842 23.8224 56.4 26.8464 56.4 30C56.4 33.1536 55.842 36.1776 54.8244 38.9832Z" fill="#1E1E1E"/>
</svg>
