<svg width="24" height="24" viewBox="0 0 24 24" fill="none" xmlns="http://www.w3.org/2000/svg">
<path d="M12.75 3C12.5511 3 12.3603 3.07902 12.2197 3.21967C12.079 3.36032 12 3.55109 12 3.75L12 18.4395L8.781 15.2205C8.63955 15.0839 8.4501 15.0083 8.25345 15.01C8.0568 15.0117 7.86869 15.0906 7.72964 15.2296C7.59058 15.3687 7.5117 15.5568 7.51 15.7534C7.50829 15.9501 7.58388 16.1395 7.7205 16.281L12.2205 20.781C12.2895 20.8504 12.3715 20.9055 12.4619 20.9431C12.5522 20.9806 12.6491 21 12.747 21L12.75 21C12.8475 21 12.945 20.9805 13.0365 20.9415C13.1274 20.9041 13.21 20.8491 13.2795 20.7795L17.7795 16.2795C17.9161 16.138 17.9917 15.9486 17.99 15.7519C17.9883 15.5553 17.9094 15.3672 17.7704 15.2281C17.6313 15.0891 17.4432 15.0102 17.2466 15.0085C17.0499 15.0068 16.8605 15.0824 16.719 15.219L13.5 18.4395L13.5 3.75C13.5 3.55109 13.421 3.36032 13.2803 3.21967C13.1397 3.07902 12.9489 3 12.75 3Z" fill="#1E1E1E"/>
</svg>
