<svg width="30" height="30" viewBox="0 0 30 30" fill="none" xmlns="http://www.w3.org/2000/svg">
<path d="M28.125 27.96V8.98873L20.625 5.23873L19.8019 4.76248C19.5694 4.37623 19.305 4.00873 18.9769 3.68248C16.7831 1.49061 13.2169 1.49061 11.0231 3.68248C9.96187 4.74561 9.375 6.15936 9.375 7.66123C9.375 7.79998 9.405 7.93498 9.41437 8.07186L1.875 4.30123V23.2725L9.375 27.0225L10.2694 27.4687L11.25 27.0787L19.6444 23.7206L28.125 27.96ZM26.25 10.1475V24.9262L20.625 22.1137V7.66123V7.33498L26.25 10.1475ZM12.3488 5.00811C13.8094 3.54748 16.1906 3.54748 17.6512 5.00811C17.9962 5.35311 18.2606 5.75436 18.4463 6.18748L18.4837 6.28123C18.4969 6.31311 18.5025 6.34686 18.5138 6.37873C18.5831 6.56998 18.645 6.76311 18.6825 6.95998C18.7256 7.18873 18.75 7.42311 18.75 7.66123C18.75 8.66248 18.36 9.60373 17.6512 10.3125L15 12.9637L12.3488 10.3125C12.1706 10.1344 12.0131 9.94123 11.8763 9.73686C11.8519 9.69936 11.8369 9.65811 11.8144 9.62248C11.7075 9.44811 11.6063 9.27186 11.5294 9.08248C11.3475 8.63811 11.25 8.15623 11.25 7.66123C11.25 6.65998 11.64 5.71686 12.3488 5.00811ZM3.75 22.1137V7.33498L9.375 10.1475V24.9262L3.75 22.1137ZM11.25 11.865L15 15.615L18.75 11.865V22.0594L11.25 25.0594V11.865Z" fill="#1E1E1E"/>
<path d="M15 8.49756C15.6472 8.49756 16.1719 7.97289 16.1719 7.32568C16.1719 6.67847 15.6472 6.15381 15 6.15381C14.3528 6.15381 13.8281 6.67847 13.8281 7.32568C13.8281 7.97289 14.3528 8.49756 15 8.49756Z" fill="#1E1E1E"/>
</svg>
